%
M48
M72
T01C0.0236
T02C0.0276
T03C0.0315
T04C0.0320
T05C0.0354
T06C0.0551
T07C0.1260
%
T01
X3430Y2596
T02
X2180Y4096
X1180Y4096
T03
X8938Y6346
X9922Y6346
X8922Y13596
X7938Y13596
T04
X10930Y13596
X11930Y13596
X10930Y4096
X10930Y3096
X10930Y2096
X10930Y1096
X7930Y1096
X7930Y2096
X7930Y3096
X7930Y4096
X1930Y13596
X930Y13596
T05
X1430Y11096
X1430Y9596
X1430Y8096
X1430Y6596
X5430Y6596
X5430Y8096
X5430Y9596
X5430Y11096
X7430Y11096
X7430Y9596
X7430Y8096
X11430Y8096
X11430Y9596
X11430Y11096
T06
X1180Y1096
X2180Y1096
X2180Y2346
X1180Y2346
T07
X4680Y13346
M30
