G75*
G70*
%OFA0B0*%
%FSLAX24Y24*%
%IPPOS*%
%LPD*%
%AMOC8*
5,1,8,0,0,1.08239X$1,22.5*
%
%ADD10R,0.0472X0.0472*%
%ADD11C,0.0472*%
%ADD12C,0.0740*%
%ADD13C,0.0480*%
%ADD14C,0.0160*%
%ADD15C,0.0760*%
%ADD16C,0.2540*%
%ADD17R,0.0760X0.0760*%
%ADD18C,0.0240*%
%ADD19OC8,0.0356*%
D10*
X008938Y006346D03*
X007938Y013596D03*
D11*
X008922Y013596D03*
X009922Y006346D03*
D12*
X011430Y008096D03*
X011430Y009596D03*
X011430Y011096D03*
X010930Y013596D03*
X011930Y013596D03*
X007430Y011096D03*
X007430Y009596D03*
X007430Y008096D03*
X005430Y008096D03*
X005430Y006596D03*
X005430Y009596D03*
X005430Y011096D03*
X001930Y013596D03*
X000930Y013596D03*
X001430Y011096D03*
X001430Y009596D03*
X001430Y008096D03*
X001430Y006596D03*
D13*
X007690Y004096D02*
X008170Y004096D01*
X008170Y003096D02*
X007690Y003096D01*
X007690Y002096D02*
X008170Y002096D01*
X008170Y001096D02*
X007690Y001096D01*
X010690Y001096D02*
X011170Y001096D01*
X011170Y002096D02*
X010690Y002096D01*
X010690Y003096D02*
X011170Y003096D01*
X011170Y004096D02*
X010690Y004096D01*
D14*
X000420Y000586D02*
X000420Y013244D01*
X000584Y013079D01*
X000809Y012986D01*
X001051Y012986D01*
X001276Y013079D01*
X001430Y013234D01*
X001570Y013094D01*
X001570Y011745D01*
X001531Y011706D01*
X001309Y011706D01*
X001084Y011613D01*
X000913Y011442D01*
X000820Y011218D01*
X000820Y010975D01*
X000913Y010751D01*
X001084Y010579D01*
X001309Y010486D01*
X001551Y010486D01*
X001776Y010579D01*
X001947Y010751D01*
X002040Y010975D01*
X002040Y011197D01*
X002235Y011392D01*
X002290Y011525D01*
X002290Y013094D01*
X002447Y013251D01*
X002540Y013475D01*
X002540Y013718D01*
X002447Y013942D01*
X002276Y014113D01*
X002051Y014206D01*
X001809Y014206D01*
X001584Y014113D01*
X001430Y013959D01*
X001276Y014113D01*
X001051Y014206D01*
X000809Y014206D01*
X000584Y014113D01*
X000420Y013949D01*
X000420Y014606D01*
X003842Y014606D01*
X003753Y014555D01*
X003472Y014274D01*
X003273Y013929D01*
X003170Y013545D01*
X003170Y013148D01*
X003273Y012764D01*
X003472Y012419D01*
X003753Y012138D01*
X004097Y011939D01*
X004481Y011836D01*
X004879Y011836D01*
X005263Y011939D01*
X005607Y012138D01*
X005888Y012419D01*
X006087Y012764D01*
X006190Y013148D01*
X006190Y013545D01*
X006087Y013929D01*
X005888Y014274D01*
X005607Y014555D01*
X005518Y014606D01*
X012440Y014606D01*
X012440Y013949D01*
X012276Y014113D01*
X012051Y014206D01*
X011809Y014206D01*
X011584Y014113D01*
X011430Y013959D01*
X011276Y014113D01*
X011051Y014206D01*
X010809Y014206D01*
X010584Y014113D01*
X010413Y013942D01*
X010320Y013718D01*
X010320Y013475D01*
X010413Y013251D01*
X010584Y013079D01*
X010809Y012986D01*
X011051Y012986D01*
X011276Y013079D01*
X011430Y013234D01*
X011570Y013094D01*
X011570Y011745D01*
X011531Y011706D01*
X011309Y011706D01*
X011084Y011613D01*
X010913Y011442D01*
X010820Y011218D01*
X010820Y010975D01*
X010913Y010751D01*
X011084Y010579D01*
X011309Y010486D01*
X011551Y010486D01*
X011776Y010579D01*
X011947Y010751D01*
X012040Y010975D01*
X012040Y011197D01*
X012235Y011392D01*
X012290Y011525D01*
X012290Y013094D01*
X012440Y013244D01*
X012440Y000586D01*
X002296Y000586D01*
X002472Y000659D01*
X002617Y000804D01*
X002696Y000994D01*
X002696Y001199D01*
X002617Y001388D01*
X002472Y001533D01*
X002283Y001612D01*
X002077Y001612D01*
X001888Y001533D01*
X001743Y001388D01*
X001680Y001237D01*
X001617Y001388D01*
X001472Y001533D01*
X001283Y001612D01*
X001077Y001612D01*
X000888Y001533D01*
X000743Y001388D01*
X000664Y001199D01*
X000664Y000994D01*
X000743Y000804D01*
X000888Y000659D01*
X001064Y000586D01*
X000420Y000586D01*
X000420Y000663D02*
X000884Y000663D01*
X000736Y000822D02*
X000420Y000822D01*
X000420Y000980D02*
X000670Y000980D01*
X000664Y001139D02*
X000420Y001139D01*
X000420Y001297D02*
X000705Y001297D01*
X000810Y001456D02*
X000420Y001456D01*
X000420Y001614D02*
X012440Y001614D01*
X012440Y001456D02*
X011489Y001456D01*
X011442Y001503D02*
X011265Y001576D01*
X010595Y001576D01*
X010418Y001503D01*
X010283Y001368D01*
X010210Y001192D01*
X010210Y001001D01*
X010283Y000824D01*
X010418Y000689D01*
X010595Y000616D01*
X011265Y000616D01*
X011442Y000689D01*
X011577Y000824D01*
X011650Y001001D01*
X011650Y001192D01*
X011577Y001368D01*
X011442Y001503D01*
X011442Y001689D02*
X011577Y001824D01*
X011650Y002001D01*
X011650Y002192D01*
X011577Y002368D01*
X011442Y002503D01*
X011265Y002576D01*
X010595Y002576D01*
X010418Y002503D01*
X010371Y002456D01*
X009579Y002456D01*
X009290Y002745D01*
X009290Y003477D01*
X009875Y002892D01*
X009976Y002791D01*
X010108Y002736D01*
X010371Y002736D01*
X010418Y002689D01*
X010595Y002616D01*
X011265Y002616D01*
X011442Y002689D01*
X011577Y002824D01*
X011650Y003001D01*
X011650Y003192D01*
X011577Y003368D01*
X011442Y003503D01*
X011265Y003576D01*
X010595Y003576D01*
X010418Y003503D01*
X010371Y003456D01*
X010329Y003456D01*
X009790Y003995D01*
X009790Y004918D01*
X009735Y005050D01*
X009634Y005152D01*
X008915Y005870D01*
X009222Y005870D01*
X009310Y005907D01*
X009378Y005974D01*
X009414Y006062D01*
X009414Y006630D01*
X009378Y006719D01*
X009310Y006786D01*
X009222Y006823D01*
X008654Y006823D01*
X008566Y006786D01*
X008540Y006760D01*
X008540Y010418D01*
X008485Y010550D01*
X008384Y010652D01*
X008040Y010995D01*
X008040Y011218D01*
X007947Y011442D01*
X007903Y011486D01*
X008502Y011486D01*
X008634Y011541D01*
X008735Y011642D01*
X009227Y012135D01*
X009282Y012267D01*
X009282Y013283D01*
X009326Y013327D01*
X009398Y013502D01*
X010320Y013502D01*
X010320Y013660D02*
X009398Y013660D01*
X009398Y013691D02*
X009398Y013502D01*
X009333Y013343D02*
X010375Y013343D01*
X010479Y013185D02*
X009282Y013185D01*
X009282Y013026D02*
X010712Y013026D01*
X011148Y013026D02*
X011570Y013026D01*
X011570Y012868D02*
X009282Y012868D01*
X009282Y012709D02*
X011570Y012709D01*
X011570Y012551D02*
X009282Y012551D01*
X009282Y012392D02*
X011570Y012392D01*
X011570Y012234D02*
X009268Y012234D01*
X009168Y012075D02*
X011570Y012075D01*
X011570Y011917D02*
X009010Y011917D01*
X008851Y011758D02*
X011570Y011758D01*
X011071Y011600D02*
X008693Y011600D01*
X008281Y012206D02*
X006858Y012206D01*
X006726Y012152D01*
X006625Y012050D01*
X006226Y011652D01*
X006125Y011550D01*
X006070Y011418D01*
X006070Y010245D01*
X005857Y010032D01*
X005776Y010113D01*
X005551Y010206D01*
X005309Y010206D01*
X005084Y010113D01*
X004913Y009942D01*
X004820Y009718D01*
X004820Y009475D01*
X004913Y009251D01*
X005084Y009079D01*
X005309Y008986D01*
X005551Y008986D01*
X005776Y009079D01*
X005933Y009236D01*
X006002Y009236D01*
X006134Y009291D01*
X006235Y009392D01*
X006235Y009392D01*
X006735Y009892D01*
X006790Y010025D01*
X006790Y011197D01*
X006827Y011234D01*
X006820Y011218D01*
X006820Y010975D01*
X006913Y010751D01*
X007084Y010579D01*
X007309Y010486D01*
X007531Y010486D01*
X007820Y010197D01*
X007820Y010069D01*
X007776Y010113D01*
X007551Y010206D01*
X007309Y010206D01*
X007084Y010113D01*
X006913Y009942D01*
X006820Y009718D01*
X006820Y009495D01*
X005857Y008532D01*
X005776Y008613D01*
X005551Y008706D01*
X005309Y008706D01*
X005084Y008613D01*
X004913Y008442D01*
X004820Y008218D01*
X004820Y007975D01*
X004913Y007751D01*
X005084Y007579D01*
X005309Y007486D01*
X005551Y007486D01*
X005776Y007579D01*
X005933Y007736D01*
X006002Y007736D01*
X006134Y007791D01*
X007329Y008986D01*
X007551Y008986D01*
X007776Y009079D01*
X007820Y009124D01*
X007820Y006215D01*
X007134Y006902D01*
X007002Y006956D01*
X005933Y006956D01*
X005776Y007113D01*
X005551Y007206D01*
X005309Y007206D01*
X005084Y007113D01*
X004913Y006942D01*
X004820Y006718D01*
X004820Y006475D01*
X004913Y006251D01*
X005084Y006079D01*
X005309Y005986D01*
X005551Y005986D01*
X005776Y006079D01*
X005933Y006236D01*
X006781Y006236D01*
X008570Y004447D01*
X008570Y004375D01*
X008442Y004503D01*
X008265Y004576D01*
X007595Y004576D01*
X007418Y004503D01*
X007283Y004368D01*
X007210Y004192D01*
X007210Y004001D01*
X007283Y003824D01*
X007418Y003689D01*
X007595Y003616D01*
X008265Y003616D01*
X008442Y003689D01*
X008570Y003818D01*
X008570Y003375D01*
X008442Y003503D01*
X008265Y003576D01*
X007595Y003576D01*
X007418Y003503D01*
X007283Y003368D01*
X007210Y003192D01*
X007210Y003001D01*
X007283Y002824D01*
X007418Y002689D01*
X007595Y002616D01*
X008265Y002616D01*
X008442Y002689D01*
X008570Y002818D01*
X008570Y002525D01*
X008625Y002392D01*
X009125Y001892D01*
X009226Y001791D01*
X009358Y001736D01*
X010371Y001736D01*
X010418Y001689D01*
X010595Y001616D01*
X011265Y001616D01*
X011442Y001689D01*
X011525Y001773D02*
X012440Y001773D01*
X012440Y001931D02*
X011621Y001931D01*
X011650Y002090D02*
X012440Y002090D01*
X012440Y002248D02*
X011627Y002248D01*
X011538Y002407D02*
X012440Y002407D01*
X012440Y002565D02*
X011292Y002565D01*
X011476Y002724D02*
X012440Y002724D01*
X012440Y002882D02*
X011601Y002882D01*
X011650Y003041D02*
X012440Y003041D01*
X012440Y003199D02*
X011647Y003199D01*
X011581Y003358D02*
X012440Y003358D01*
X012440Y003516D02*
X011410Y003516D01*
X010568Y002565D02*
X009470Y002565D01*
X009312Y002724D02*
X010384Y002724D01*
X009885Y002882D02*
X009290Y002882D01*
X009290Y003041D02*
X009726Y003041D01*
X009568Y003199D02*
X009290Y003199D01*
X009290Y003358D02*
X009409Y003358D01*
X009952Y003833D02*
X012440Y003833D01*
X012440Y003675D02*
X010111Y003675D01*
X010269Y003516D02*
X010450Y003516D01*
X009794Y003992D02*
X012440Y003992D01*
X012440Y004150D02*
X009790Y004150D01*
X009790Y004309D02*
X012440Y004309D01*
X012440Y004467D02*
X009790Y004467D01*
X009790Y004626D02*
X012440Y004626D01*
X012440Y004784D02*
X009790Y004784D01*
X009780Y004943D02*
X012440Y004943D01*
X012440Y005101D02*
X009684Y005101D01*
X009526Y005260D02*
X012440Y005260D01*
X012440Y005418D02*
X009367Y005418D01*
X009209Y005577D02*
X012440Y005577D01*
X012440Y005735D02*
X009050Y005735D01*
X009279Y005894D02*
X009770Y005894D01*
X009827Y005870D02*
X009652Y005943D01*
X009518Y006077D01*
X009446Y006252D01*
X009446Y006441D01*
X009518Y006616D01*
X009652Y006750D01*
X009827Y006823D01*
X010017Y006823D01*
X010192Y006750D01*
X010326Y006616D01*
X010398Y006441D01*
X010398Y006252D01*
X010326Y006077D01*
X010192Y005943D01*
X010017Y005870D01*
X009827Y005870D01*
X010074Y005894D02*
X012440Y005894D01*
X012440Y006052D02*
X010302Y006052D01*
X010381Y006211D02*
X012440Y006211D01*
X012440Y006369D02*
X010398Y006369D01*
X010362Y006528D02*
X012440Y006528D01*
X012440Y006686D02*
X010256Y006686D01*
X009589Y006686D02*
X009391Y006686D01*
X009414Y006528D02*
X009482Y006528D01*
X009446Y006369D02*
X009414Y006369D01*
X009414Y006211D02*
X009463Y006211D01*
X009410Y006052D02*
X009543Y006052D01*
X008540Y006845D02*
X012440Y006845D01*
X012440Y007003D02*
X008540Y007003D01*
X008540Y007162D02*
X012440Y007162D01*
X012440Y007320D02*
X008540Y007320D01*
X008540Y007479D02*
X012440Y007479D01*
X012440Y007637D02*
X011834Y007637D01*
X011776Y007579D02*
X011947Y007751D01*
X012040Y007975D01*
X012040Y008218D01*
X011947Y008442D01*
X011776Y008613D01*
X011551Y008706D01*
X011309Y008706D01*
X011084Y008613D01*
X010913Y008442D01*
X010820Y008218D01*
X010820Y007975D01*
X010913Y007751D01*
X011084Y007579D01*
X011309Y007486D01*
X011551Y007486D01*
X011776Y007579D01*
X011966Y007796D02*
X012440Y007796D01*
X012440Y007954D02*
X012031Y007954D01*
X012040Y008113D02*
X012440Y008113D01*
X012440Y008271D02*
X012018Y008271D01*
X011952Y008430D02*
X012440Y008430D01*
X012440Y008588D02*
X011801Y008588D01*
X011551Y008986D02*
X011776Y009079D01*
X011947Y009251D01*
X012040Y009475D01*
X012040Y009718D01*
X011947Y009942D01*
X011776Y010113D01*
X011551Y010206D01*
X011309Y010206D01*
X011084Y010113D01*
X010913Y009942D01*
X010820Y009718D01*
X010820Y009475D01*
X010913Y009251D01*
X011084Y009079D01*
X011309Y008986D01*
X011551Y008986D01*
X011738Y009064D02*
X012440Y009064D01*
X012440Y009222D02*
X011919Y009222D01*
X012001Y009381D02*
X012440Y009381D01*
X012440Y009539D02*
X012040Y009539D01*
X012040Y009698D02*
X012440Y009698D01*
X012440Y009856D02*
X011983Y009856D01*
X011874Y010015D02*
X012440Y010015D01*
X012440Y010173D02*
X011631Y010173D01*
X011561Y010490D02*
X012440Y010490D01*
X012440Y010332D02*
X008540Y010332D01*
X008540Y010173D02*
X011229Y010173D01*
X010986Y010015D02*
X008540Y010015D01*
X008540Y009856D02*
X010877Y009856D01*
X010820Y009698D02*
X008540Y009698D01*
X008540Y009539D02*
X010820Y009539D01*
X010859Y009381D02*
X008540Y009381D01*
X008540Y009222D02*
X010941Y009222D01*
X011122Y009064D02*
X008540Y009064D01*
X008540Y008905D02*
X012440Y008905D01*
X012440Y008747D02*
X008540Y008747D01*
X008540Y008588D02*
X011059Y008588D01*
X010908Y008430D02*
X008540Y008430D01*
X008540Y008271D02*
X010842Y008271D01*
X010820Y008113D02*
X008540Y008113D01*
X008540Y007954D02*
X010829Y007954D01*
X010894Y007796D02*
X008540Y007796D01*
X008540Y007637D02*
X011026Y007637D01*
X011299Y010490D02*
X008510Y010490D01*
X008387Y010649D02*
X011015Y010649D01*
X010889Y010807D02*
X008228Y010807D01*
X008070Y010966D02*
X010824Y010966D01*
X010820Y011124D02*
X008040Y011124D01*
X008013Y011283D02*
X010847Y011283D01*
X010913Y011441D02*
X007947Y011441D01*
X008281Y012206D02*
X008562Y012488D01*
X008562Y013283D01*
X008518Y013327D01*
X008446Y013502D01*
X008414Y013502D01*
X008446Y013502D02*
X008446Y013691D01*
X008518Y013866D01*
X008652Y014000D01*
X008827Y014073D01*
X009017Y014073D01*
X009192Y014000D01*
X009326Y013866D01*
X009398Y013691D01*
X009345Y013819D02*
X010362Y013819D01*
X010448Y013977D02*
X009215Y013977D01*
X008630Y013977D02*
X008369Y013977D01*
X008378Y013969D02*
X008310Y014036D01*
X008222Y014073D01*
X007654Y014073D01*
X007566Y014036D01*
X007498Y013969D01*
X007462Y013880D01*
X007462Y013312D01*
X007498Y013224D01*
X007566Y013157D01*
X007654Y013120D01*
X008222Y013120D01*
X008310Y013157D01*
X008378Y013224D01*
X008414Y013312D01*
X008414Y013880D01*
X008378Y013969D01*
X008414Y013819D02*
X008499Y013819D01*
X008446Y013660D02*
X008414Y013660D01*
X008414Y013343D02*
X008511Y013343D01*
X008562Y013185D02*
X008338Y013185D01*
X008562Y013026D02*
X006158Y013026D01*
X006190Y013185D02*
X007538Y013185D01*
X007462Y013343D02*
X006190Y013343D01*
X006190Y013502D02*
X007462Y013502D01*
X007462Y013660D02*
X006159Y013660D01*
X006117Y013819D02*
X007462Y013819D01*
X007507Y013977D02*
X006059Y013977D01*
X005968Y014136D02*
X010639Y014136D01*
X011221Y014136D02*
X011639Y014136D01*
X011448Y013977D02*
X011412Y013977D01*
X011381Y013185D02*
X011479Y013185D01*
X012290Y013026D02*
X012440Y013026D01*
X012440Y012868D02*
X012290Y012868D01*
X012290Y012709D02*
X012440Y012709D01*
X012440Y012551D02*
X012290Y012551D01*
X012290Y012392D02*
X012440Y012392D01*
X012440Y012234D02*
X012290Y012234D01*
X012290Y012075D02*
X012440Y012075D01*
X012440Y011917D02*
X012290Y011917D01*
X012290Y011758D02*
X012440Y011758D01*
X012440Y011600D02*
X012290Y011600D01*
X012255Y011441D02*
X012440Y011441D01*
X012440Y011283D02*
X012126Y011283D01*
X012040Y011124D02*
X012440Y011124D01*
X012440Y010966D02*
X012036Y010966D01*
X011971Y010807D02*
X012440Y010807D01*
X012440Y010649D02*
X011845Y010649D01*
X012381Y013185D02*
X012440Y013185D01*
X012412Y013977D02*
X012440Y013977D01*
X012440Y014136D02*
X012221Y014136D01*
X012440Y014294D02*
X005867Y014294D01*
X005709Y014453D02*
X012440Y014453D01*
X008562Y012868D02*
X006115Y012868D01*
X006056Y012709D02*
X008562Y012709D01*
X008562Y012551D02*
X005964Y012551D01*
X005861Y012392D02*
X008467Y012392D01*
X008308Y012234D02*
X005703Y012234D01*
X005499Y012075D02*
X006650Y012075D01*
X006625Y012050D02*
X006625Y012050D01*
X006491Y011917D02*
X005179Y011917D01*
X005309Y011706D02*
X005084Y011613D01*
X004913Y011442D01*
X004820Y011218D01*
X004820Y010975D01*
X004913Y010751D01*
X005084Y010579D01*
X005309Y010486D01*
X005551Y010486D01*
X005776Y010579D01*
X005947Y010751D01*
X006040Y010975D01*
X006040Y011218D01*
X005947Y011442D01*
X005776Y011613D01*
X005551Y011706D01*
X005309Y011706D01*
X005071Y011600D02*
X002290Y011600D01*
X002290Y011758D02*
X006333Y011758D01*
X006226Y011652D02*
X006226Y011652D01*
X006174Y011600D02*
X005789Y011600D01*
X005947Y011441D02*
X006080Y011441D01*
X006070Y011283D02*
X006013Y011283D01*
X006040Y011124D02*
X006070Y011124D01*
X006070Y010966D02*
X006036Y010966D01*
X006070Y010807D02*
X005971Y010807D01*
X006070Y010649D02*
X005845Y010649D01*
X006070Y010490D02*
X005561Y010490D01*
X005299Y010490D02*
X001561Y010490D01*
X001299Y010490D02*
X000420Y010490D01*
X000420Y010332D02*
X006070Y010332D01*
X005998Y010173D02*
X005631Y010173D01*
X005229Y010173D02*
X001631Y010173D01*
X001551Y010206D02*
X001309Y010206D01*
X001084Y010113D01*
X000913Y009942D01*
X000820Y009718D01*
X000820Y009475D01*
X000913Y009251D01*
X001084Y009079D01*
X001309Y008986D01*
X001551Y008986D01*
X001776Y009079D01*
X001933Y009236D01*
X002781Y009236D01*
X003070Y008947D01*
X003070Y002828D01*
X003012Y002770D01*
X003012Y002423D01*
X003257Y002178D01*
X003603Y002178D01*
X003848Y002423D01*
X003848Y002770D01*
X003790Y002828D01*
X003790Y009168D01*
X003735Y009300D01*
X003235Y009800D01*
X003134Y009902D01*
X003002Y009956D01*
X001933Y009956D01*
X001776Y010113D01*
X001551Y010206D01*
X001874Y010015D02*
X004986Y010015D01*
X004877Y009856D02*
X003179Y009856D01*
X003338Y009698D02*
X004820Y009698D01*
X004820Y009539D02*
X003496Y009539D01*
X003655Y009381D02*
X004859Y009381D01*
X004941Y009222D02*
X003767Y009222D01*
X003790Y009064D02*
X005122Y009064D01*
X005059Y008588D02*
X003790Y008588D01*
X003790Y008430D02*
X004908Y008430D01*
X004842Y008271D02*
X003790Y008271D01*
X003790Y008113D02*
X004820Y008113D01*
X004829Y007954D02*
X003790Y007954D01*
X003790Y007796D02*
X004894Y007796D01*
X005026Y007637D02*
X003790Y007637D01*
X003790Y007479D02*
X007820Y007479D01*
X007820Y007637D02*
X005834Y007637D01*
X006139Y007796D02*
X007820Y007796D01*
X007820Y007954D02*
X006297Y007954D01*
X006456Y008113D02*
X007820Y008113D01*
X007820Y008271D02*
X006614Y008271D01*
X006773Y008430D02*
X007820Y008430D01*
X007820Y008588D02*
X006931Y008588D01*
X007090Y008747D02*
X007820Y008747D01*
X007820Y008905D02*
X007248Y008905D01*
X007738Y009064D02*
X007820Y009064D01*
X006986Y010015D02*
X006786Y010015D01*
X006790Y010173D02*
X007229Y010173D01*
X007299Y010490D02*
X006790Y010490D01*
X006790Y010332D02*
X007685Y010332D01*
X007631Y010173D02*
X007820Y010173D01*
X007015Y010649D02*
X006790Y010649D01*
X006790Y010807D02*
X006889Y010807D01*
X006824Y010966D02*
X006790Y010966D01*
X006790Y011124D02*
X006820Y011124D01*
X006877Y009856D02*
X006699Y009856D01*
X006820Y009698D02*
X006541Y009698D01*
X006382Y009539D02*
X006820Y009539D01*
X006705Y009381D02*
X006224Y009381D01*
X005919Y009222D02*
X006547Y009222D01*
X006388Y009064D02*
X005738Y009064D01*
X006071Y008747D02*
X003790Y008747D01*
X003790Y008905D02*
X006230Y008905D01*
X005913Y008588D02*
X005801Y008588D01*
X005659Y007162D02*
X007820Y007162D01*
X007820Y007320D02*
X003790Y007320D01*
X003790Y007162D02*
X005201Y007162D01*
X004974Y007003D02*
X003790Y007003D01*
X003790Y006845D02*
X004873Y006845D01*
X004820Y006686D02*
X003790Y006686D01*
X003790Y006528D02*
X004820Y006528D01*
X004864Y006369D02*
X003790Y006369D01*
X003790Y006211D02*
X004953Y006211D01*
X005149Y006052D02*
X003790Y006052D01*
X003790Y005894D02*
X007123Y005894D01*
X006965Y006052D02*
X005711Y006052D01*
X005907Y006211D02*
X006806Y006211D01*
X007282Y005735D02*
X003790Y005735D01*
X003790Y005577D02*
X007440Y005577D01*
X007599Y005418D02*
X003790Y005418D01*
X003790Y005260D02*
X007757Y005260D01*
X007916Y005101D02*
X003790Y005101D01*
X003790Y004943D02*
X008074Y004943D01*
X008233Y004784D02*
X003790Y004784D01*
X003790Y004626D02*
X008391Y004626D01*
X008478Y004467D02*
X008550Y004467D01*
X008570Y003675D02*
X008407Y003675D01*
X008410Y003516D02*
X008570Y003516D01*
X008570Y002724D02*
X008476Y002724D01*
X008570Y002565D02*
X008292Y002565D01*
X008265Y002576D02*
X008442Y002503D01*
X008577Y002368D01*
X008650Y002192D01*
X008650Y002001D01*
X008577Y001824D01*
X008442Y001689D01*
X008265Y001616D01*
X007595Y001616D01*
X007418Y001689D01*
X007283Y001824D01*
X007210Y002001D01*
X007210Y002192D01*
X007283Y002368D01*
X007418Y002503D01*
X007595Y002576D01*
X008265Y002576D01*
X008538Y002407D02*
X008619Y002407D01*
X008627Y002248D02*
X008769Y002248D01*
X008650Y002090D02*
X008927Y002090D01*
X009086Y001931D02*
X008621Y001931D01*
X008525Y001773D02*
X009270Y001773D01*
X008577Y001368D02*
X008650Y001192D01*
X008650Y001001D01*
X008577Y000824D01*
X008442Y000689D01*
X008265Y000616D01*
X007595Y000616D01*
X007418Y000689D01*
X007283Y000824D01*
X007210Y001001D01*
X007210Y001192D01*
X007283Y001368D01*
X007418Y001503D01*
X007595Y001576D01*
X008265Y001576D01*
X008442Y001503D01*
X008577Y001368D01*
X008606Y001297D02*
X010254Y001297D01*
X010210Y001139D02*
X008650Y001139D01*
X008641Y000980D02*
X010218Y000980D01*
X010286Y000822D02*
X008574Y000822D01*
X008379Y000663D02*
X010481Y000663D01*
X010371Y001456D02*
X008489Y001456D01*
X007481Y000663D02*
X002476Y000663D01*
X002624Y000822D02*
X007286Y000822D01*
X007218Y000980D02*
X002690Y000980D01*
X002696Y001139D02*
X007210Y001139D01*
X007254Y001297D02*
X002655Y001297D01*
X002550Y001456D02*
X007371Y001456D01*
X007335Y001773D02*
X000420Y001773D01*
X000420Y001931D02*
X000866Y001931D01*
X000888Y001909D02*
X001077Y001831D01*
X001283Y001831D01*
X001472Y001909D01*
X001617Y002054D01*
X001680Y002206D01*
X001743Y002054D01*
X001888Y001909D01*
X002077Y001831D01*
X002283Y001831D01*
X002472Y001909D01*
X002617Y002054D01*
X002696Y002244D01*
X002696Y002449D01*
X002617Y002638D01*
X002472Y002783D01*
X002283Y002862D01*
X002077Y002862D01*
X001888Y002783D01*
X001743Y002638D01*
X001680Y002487D01*
X001617Y002638D01*
X001472Y002783D01*
X001283Y002862D01*
X001077Y002862D01*
X000888Y002783D01*
X000743Y002638D01*
X000664Y002449D01*
X000664Y002244D01*
X000743Y002054D01*
X000888Y001909D01*
X000728Y002090D02*
X000420Y002090D01*
X000420Y002248D02*
X000664Y002248D01*
X000664Y002407D02*
X000420Y002407D01*
X000420Y002565D02*
X000713Y002565D01*
X000828Y002724D02*
X000420Y002724D01*
X000420Y002882D02*
X003070Y002882D01*
X003070Y003041D02*
X000420Y003041D01*
X000420Y003199D02*
X003070Y003199D01*
X003070Y003358D02*
X000420Y003358D01*
X000420Y003516D02*
X001661Y003516D01*
X001664Y003513D02*
X001752Y003476D01*
X002608Y003476D01*
X002696Y003513D01*
X002763Y003580D01*
X002800Y003669D01*
X002800Y004524D01*
X002763Y004612D01*
X002696Y004680D01*
X002608Y004716D01*
X001752Y004716D01*
X001664Y004680D01*
X001597Y004612D01*
X001560Y004524D01*
X001560Y003669D01*
X001597Y003580D01*
X001664Y003513D01*
X001560Y003675D02*
X000420Y003675D01*
X000420Y003833D02*
X001560Y003833D01*
X001560Y003992D02*
X000420Y003992D01*
X000420Y004150D02*
X001560Y004150D01*
X001560Y004309D02*
X000420Y004309D01*
X000420Y004467D02*
X001560Y004467D01*
X001610Y004626D02*
X000420Y004626D01*
X000420Y004784D02*
X003070Y004784D01*
X003070Y004626D02*
X002750Y004626D01*
X002800Y004467D02*
X003070Y004467D01*
X003070Y004309D02*
X002800Y004309D01*
X002800Y004150D02*
X003070Y004150D01*
X003070Y003992D02*
X002800Y003992D01*
X002800Y003833D02*
X003070Y003833D01*
X003070Y003675D02*
X002800Y003675D01*
X002699Y003516D02*
X003070Y003516D01*
X003012Y002724D02*
X002532Y002724D01*
X002647Y002565D02*
X003012Y002565D01*
X003028Y002407D02*
X002696Y002407D01*
X002696Y002248D02*
X003187Y002248D01*
X003673Y002248D02*
X007233Y002248D01*
X007210Y002090D02*
X002632Y002090D01*
X002494Y001931D02*
X007239Y001931D01*
X007322Y002407D02*
X003832Y002407D01*
X003848Y002565D02*
X007568Y002565D01*
X007384Y002724D02*
X003848Y002724D01*
X003790Y002882D02*
X007259Y002882D01*
X007210Y003041D02*
X003790Y003041D01*
X003790Y003199D02*
X007213Y003199D01*
X007279Y003358D02*
X003790Y003358D01*
X003790Y003516D02*
X007450Y003516D01*
X007453Y003675D02*
X003790Y003675D01*
X003790Y003833D02*
X007279Y003833D01*
X007214Y003992D02*
X003790Y003992D01*
X003790Y004150D02*
X007210Y004150D01*
X007258Y004309D02*
X003790Y004309D01*
X003790Y004467D02*
X007382Y004467D01*
X007666Y006369D02*
X007820Y006369D01*
X007820Y006528D02*
X007508Y006528D01*
X007349Y006686D02*
X007820Y006686D01*
X007820Y006845D02*
X007191Y006845D01*
X007820Y007003D02*
X005886Y007003D01*
X003070Y007003D02*
X001886Y007003D01*
X001947Y006942D02*
X001776Y007113D01*
X001551Y007206D01*
X001309Y007206D01*
X001084Y007113D01*
X000913Y006942D01*
X000820Y006718D01*
X000820Y006475D01*
X000913Y006251D01*
X001084Y006079D01*
X001309Y005986D01*
X001551Y005986D01*
X001776Y006079D01*
X001947Y006251D01*
X002040Y006475D01*
X002040Y006718D01*
X001947Y006942D01*
X001987Y006845D02*
X003070Y006845D01*
X003070Y006686D02*
X002040Y006686D01*
X002040Y006528D02*
X003070Y006528D01*
X003070Y006369D02*
X001996Y006369D01*
X001907Y006211D02*
X003070Y006211D01*
X003070Y006052D02*
X001711Y006052D01*
X001149Y006052D02*
X000420Y006052D01*
X000420Y005894D02*
X003070Y005894D01*
X003070Y005735D02*
X000420Y005735D01*
X000420Y005577D02*
X003070Y005577D01*
X003070Y005418D02*
X000420Y005418D01*
X000420Y005260D02*
X003070Y005260D01*
X003070Y005101D02*
X000420Y005101D01*
X000420Y004943D02*
X003070Y004943D01*
X001828Y002724D02*
X001532Y002724D01*
X001647Y002565D02*
X001713Y002565D01*
X001728Y002090D02*
X001632Y002090D01*
X001494Y001931D02*
X001866Y001931D01*
X001810Y001456D02*
X001550Y001456D01*
X001655Y001297D02*
X001705Y001297D01*
X000953Y006211D02*
X000420Y006211D01*
X000420Y006369D02*
X000864Y006369D01*
X000820Y006528D02*
X000420Y006528D01*
X000420Y006686D02*
X000820Y006686D01*
X000873Y006845D02*
X000420Y006845D01*
X000420Y007003D02*
X000974Y007003D01*
X001201Y007162D02*
X000420Y007162D01*
X000420Y007320D02*
X003070Y007320D01*
X003070Y007162D02*
X001659Y007162D01*
X000420Y007479D02*
X003070Y007479D01*
X003070Y007637D02*
X000420Y007637D01*
X000420Y007796D02*
X003070Y007796D01*
X003070Y007954D02*
X000420Y007954D01*
X000420Y008113D02*
X003070Y008113D01*
X003070Y008271D02*
X000420Y008271D01*
X000420Y008430D02*
X003070Y008430D01*
X003070Y008588D02*
X000420Y008588D01*
X000420Y008747D02*
X003070Y008747D01*
X003070Y008905D02*
X000420Y008905D01*
X000420Y009064D02*
X001122Y009064D01*
X000941Y009222D02*
X000420Y009222D01*
X000420Y009381D02*
X000859Y009381D01*
X000820Y009539D02*
X000420Y009539D01*
X000420Y009698D02*
X000820Y009698D01*
X000877Y009856D02*
X000420Y009856D01*
X000420Y010015D02*
X000986Y010015D01*
X001229Y010173D02*
X000420Y010173D01*
X000420Y010649D02*
X001015Y010649D01*
X000889Y010807D02*
X000420Y010807D01*
X000420Y010966D02*
X000824Y010966D01*
X000820Y011124D02*
X000420Y011124D01*
X000420Y011283D02*
X000847Y011283D01*
X000913Y011441D02*
X000420Y011441D01*
X000420Y011600D02*
X001071Y011600D01*
X001570Y011758D02*
X000420Y011758D01*
X000420Y011917D02*
X001570Y011917D01*
X001570Y012075D02*
X000420Y012075D01*
X000420Y012234D02*
X001570Y012234D01*
X001570Y012392D02*
X000420Y012392D01*
X000420Y012551D02*
X001570Y012551D01*
X001570Y012709D02*
X000420Y012709D01*
X000420Y012868D02*
X001570Y012868D01*
X001570Y013026D02*
X001148Y013026D01*
X001381Y013185D02*
X001479Y013185D01*
X000712Y013026D02*
X000420Y013026D01*
X000420Y013185D02*
X000479Y013185D01*
X000448Y013977D02*
X000420Y013977D01*
X000420Y014136D02*
X000639Y014136D01*
X000420Y014294D02*
X003493Y014294D01*
X003392Y014136D02*
X002221Y014136D01*
X002412Y013977D02*
X003301Y013977D01*
X003243Y013819D02*
X002498Y013819D01*
X002540Y013660D02*
X003201Y013660D01*
X003170Y013502D02*
X002540Y013502D01*
X002485Y013343D02*
X003170Y013343D01*
X003170Y013185D02*
X002381Y013185D01*
X002290Y013026D02*
X003202Y013026D01*
X003245Y012868D02*
X002290Y012868D01*
X002290Y012709D02*
X003304Y012709D01*
X003396Y012551D02*
X002290Y012551D01*
X002290Y012392D02*
X003499Y012392D01*
X003657Y012234D02*
X002290Y012234D01*
X002290Y012075D02*
X003861Y012075D01*
X004181Y011917D02*
X002290Y011917D01*
X002255Y011441D02*
X004913Y011441D01*
X004847Y011283D02*
X002126Y011283D01*
X002040Y011124D02*
X004820Y011124D01*
X004824Y010966D02*
X002036Y010966D01*
X001971Y010807D02*
X004889Y010807D01*
X005015Y010649D02*
X001845Y010649D01*
X001919Y009222D02*
X002795Y009222D01*
X002953Y009064D02*
X001738Y009064D01*
X001448Y013977D02*
X001412Y013977D01*
X001221Y014136D02*
X001639Y014136D01*
X000420Y014453D02*
X003651Y014453D01*
X011606Y001297D02*
X012440Y001297D01*
X012440Y001139D02*
X011650Y001139D01*
X011641Y000980D02*
X012440Y000980D01*
X012440Y000822D02*
X011574Y000822D01*
X011379Y000663D02*
X012440Y000663D01*
D15*
X001180Y004096D03*
D16*
X004680Y013346D03*
D17*
X002180Y004096D03*
D18*
X003430Y002596D02*
X003430Y009096D01*
X002930Y009596D01*
X001430Y009596D01*
X001430Y011096D02*
X001930Y011596D01*
X001930Y013596D01*
X005430Y009596D02*
X005930Y009596D01*
X006430Y010096D01*
X006430Y011346D01*
X006930Y011846D01*
X008430Y011846D01*
X008922Y012338D01*
X008922Y013596D01*
X007430Y011096D02*
X008180Y010346D01*
X008180Y006096D01*
X009430Y004846D01*
X009430Y003846D01*
X010180Y003096D01*
X010930Y003096D01*
X010930Y002096D02*
X009430Y002096D01*
X008930Y002596D01*
X008930Y004596D01*
X006930Y006596D01*
X005430Y006596D01*
X005430Y008096D02*
X005930Y008096D01*
X007430Y009596D01*
X011430Y011096D02*
X011930Y011596D01*
X011930Y013596D01*
D19*
X003430Y002596D03*
M02*
