G75*
G70*
%OFA0B0*%
%FSLAX24Y24*%
%IPPOS*%
%LPD*%
%AMOC8*
5,1,8,0,0,1.08239X$1,22.5*
%
%ADD10R,0.0472X0.0472*%
%ADD11C,0.0472*%
%ADD12C,0.0740*%
%ADD13C,0.0480*%
%ADD14C,0.0760*%
%ADD15C,0.0160*%
%ADD16C,0.2540*%
%ADD17R,0.0760X0.0760*%
%ADD18C,0.0240*%
%ADD19OC8,0.0356*%
D10*
X003922Y006346D03*
X004922Y013596D03*
D11*
X003938Y013596D03*
X002938Y006346D03*
D12*
X001430Y008096D03*
X001430Y009596D03*
X001430Y011096D03*
X001930Y013596D03*
X000930Y013596D03*
X005430Y011096D03*
X005430Y009596D03*
X005430Y008096D03*
X007430Y008096D03*
X007430Y006596D03*
X007430Y009596D03*
X007430Y011096D03*
X010930Y013596D03*
X011930Y013596D03*
X011430Y011096D03*
X011430Y009596D03*
X011430Y008096D03*
X011430Y006596D03*
D13*
X005170Y004096D02*
X004690Y004096D01*
X004690Y003096D02*
X005170Y003096D01*
X005170Y002096D02*
X004690Y002096D01*
X004690Y001096D02*
X005170Y001096D01*
X002170Y001096D02*
X001690Y001096D01*
X001690Y002096D02*
X002170Y002096D01*
X002170Y003096D02*
X001690Y003096D01*
X001690Y004096D02*
X002170Y004096D01*
D14*
X011680Y004096D03*
D15*
X000420Y000586D02*
X000420Y013244D01*
X000584Y013079D01*
X000809Y012986D01*
X001051Y012986D01*
X001276Y013079D01*
X001447Y013251D01*
X001540Y013475D01*
X001540Y013718D01*
X001447Y013942D01*
X001276Y014113D01*
X001051Y014206D01*
X000809Y014206D01*
X000584Y014113D01*
X000420Y013949D01*
X000420Y014606D01*
X012440Y014606D01*
X012440Y000586D01*
X011796Y000586D01*
X011972Y000659D01*
X012117Y000804D01*
X012196Y000994D01*
X012196Y001199D01*
X012117Y001388D01*
X011972Y001533D01*
X011783Y001612D01*
X011577Y001612D01*
X011388Y001533D01*
X011243Y001388D01*
X011180Y001237D01*
X011117Y001388D01*
X010972Y001533D01*
X010783Y001612D01*
X010577Y001612D01*
X010388Y001533D01*
X010243Y001388D01*
X010164Y001199D01*
X010164Y000994D01*
X010243Y000804D01*
X010388Y000659D01*
X010564Y000586D01*
X000420Y000586D01*
X000420Y000663D02*
X001481Y000663D01*
X001418Y000689D02*
X001371Y000736D01*
X001358Y000736D01*
X001226Y000791D01*
X000726Y001291D01*
X000625Y001392D01*
X000570Y001525D01*
X000570Y005918D01*
X000625Y006050D01*
X000726Y006152D01*
X001070Y006495D01*
X001070Y007594D01*
X000913Y007751D01*
X000820Y007975D01*
X000820Y008218D01*
X000913Y008442D01*
X001084Y008613D01*
X001309Y008706D01*
X001551Y008706D01*
X001776Y008613D01*
X001947Y008442D01*
X002040Y008218D01*
X002040Y007975D01*
X001947Y007751D01*
X001790Y007594D01*
X001790Y006706D01*
X002624Y006706D01*
X002668Y006750D01*
X002843Y006823D01*
X003033Y006823D01*
X003208Y006750D01*
X003342Y006616D01*
X003414Y006441D01*
X003414Y006252D01*
X003342Y006077D01*
X003208Y005943D01*
X003033Y005870D01*
X002843Y005870D01*
X002668Y005943D01*
X002624Y005986D01*
X001579Y005986D01*
X001290Y005697D01*
X001290Y004375D01*
X001418Y004503D01*
X001595Y004576D01*
X002265Y004576D01*
X002442Y004503D01*
X002577Y004368D01*
X002650Y004192D01*
X002650Y004001D01*
X002577Y003824D01*
X002442Y003689D01*
X002265Y003616D01*
X001595Y003616D01*
X001418Y003689D01*
X001290Y003818D01*
X001290Y003375D01*
X001418Y003503D01*
X001595Y003576D01*
X002265Y003576D01*
X002442Y003503D01*
X002577Y003368D01*
X002650Y003192D01*
X002650Y003001D01*
X002577Y002824D01*
X002442Y002689D01*
X002265Y002616D01*
X001595Y002616D01*
X001418Y002689D01*
X001290Y002818D01*
X001290Y002375D01*
X001418Y002503D01*
X001595Y002576D01*
X002265Y002576D01*
X002442Y002503D01*
X002577Y002368D01*
X002650Y002192D01*
X002650Y002001D01*
X002577Y001824D01*
X002442Y001689D01*
X002265Y001616D01*
X001595Y001616D01*
X001418Y001689D01*
X001290Y001818D01*
X001290Y001745D01*
X001499Y001537D01*
X001595Y001576D01*
X002265Y001576D01*
X002442Y001503D01*
X002577Y001368D01*
X002650Y001192D01*
X002650Y001001D01*
X002577Y000824D01*
X002442Y000689D01*
X002265Y000616D01*
X001595Y000616D01*
X001418Y000689D01*
X001195Y000822D02*
X000420Y000822D01*
X000420Y000980D02*
X001037Y000980D01*
X000878Y001139D02*
X000420Y001139D01*
X000420Y001297D02*
X000720Y001297D01*
X000599Y001456D02*
X000420Y001456D01*
X000420Y001614D02*
X000570Y001614D01*
X000570Y001773D02*
X000420Y001773D01*
X000420Y001931D02*
X000570Y001931D01*
X000570Y002090D02*
X000420Y002090D01*
X000420Y002248D02*
X000570Y002248D01*
X000570Y002407D02*
X000420Y002407D01*
X000420Y002565D02*
X000570Y002565D01*
X000570Y002724D02*
X000420Y002724D01*
X000420Y002882D02*
X000570Y002882D01*
X000570Y003041D02*
X000420Y003041D01*
X000420Y003199D02*
X000570Y003199D01*
X000570Y003358D02*
X000420Y003358D01*
X000420Y003516D02*
X000570Y003516D01*
X000570Y003675D02*
X000420Y003675D01*
X000420Y003833D02*
X000570Y003833D01*
X000570Y003992D02*
X000420Y003992D01*
X000420Y004150D02*
X000570Y004150D01*
X000570Y004309D02*
X000420Y004309D01*
X000420Y004467D02*
X000570Y004467D01*
X000570Y004626D02*
X000420Y004626D01*
X000420Y004784D02*
X000570Y004784D01*
X000570Y004943D02*
X000420Y004943D01*
X000420Y005101D02*
X000570Y005101D01*
X000570Y005260D02*
X000420Y005260D01*
X000420Y005418D02*
X000570Y005418D01*
X000570Y005577D02*
X000420Y005577D01*
X000420Y005735D02*
X000570Y005735D01*
X000570Y005894D02*
X000420Y005894D01*
X000420Y006052D02*
X000627Y006052D01*
X000726Y006152D02*
X000726Y006152D01*
X000785Y006211D02*
X000420Y006211D01*
X000420Y006369D02*
X000944Y006369D01*
X001070Y006528D02*
X000420Y006528D01*
X000420Y006686D02*
X001070Y006686D01*
X001070Y006845D02*
X000420Y006845D01*
X000420Y007003D02*
X001070Y007003D01*
X001070Y007162D02*
X000420Y007162D01*
X000420Y007320D02*
X001070Y007320D01*
X001070Y007479D02*
X000420Y007479D01*
X000420Y007637D02*
X001026Y007637D01*
X000894Y007796D02*
X000420Y007796D01*
X000420Y007954D02*
X000829Y007954D01*
X000820Y008113D02*
X000420Y008113D01*
X000420Y008271D02*
X000842Y008271D01*
X000908Y008430D02*
X000420Y008430D01*
X000420Y008588D02*
X001059Y008588D01*
X000420Y008747D02*
X012440Y008747D01*
X012440Y008905D02*
X000420Y008905D01*
X000420Y009064D02*
X005122Y009064D01*
X005084Y009079D02*
X004913Y009251D01*
X004820Y009475D01*
X004820Y009718D01*
X004913Y009942D01*
X005084Y010113D01*
X005309Y010206D01*
X005551Y010206D01*
X005776Y010113D01*
X005947Y009942D01*
X006040Y009718D01*
X006040Y009475D01*
X005947Y009251D01*
X005776Y009079D01*
X005551Y008986D01*
X005309Y008986D01*
X005084Y009079D01*
X004941Y009222D02*
X000420Y009222D01*
X000420Y009381D02*
X004859Y009381D01*
X004820Y009539D02*
X000420Y009539D01*
X000420Y009698D02*
X004820Y009698D01*
X004877Y009856D02*
X000420Y009856D01*
X000420Y010015D02*
X004986Y010015D01*
X005229Y010173D02*
X000420Y010173D01*
X000420Y010332D02*
X012440Y010332D01*
X012440Y010490D02*
X011561Y010490D01*
X011551Y010486D02*
X011309Y010486D01*
X011084Y010579D01*
X010913Y010751D01*
X010820Y010975D01*
X010820Y011218D01*
X010913Y011442D01*
X011084Y011613D01*
X011309Y011706D01*
X011551Y011706D01*
X011776Y011613D01*
X011947Y011442D01*
X012040Y011218D01*
X012040Y010975D01*
X011947Y010751D01*
X011776Y010579D01*
X011551Y010486D01*
X011299Y010490D02*
X007561Y010490D01*
X007551Y010486D02*
X007309Y010486D01*
X007084Y010579D01*
X006927Y010736D01*
X005933Y010736D01*
X005776Y010579D01*
X005551Y010486D01*
X005309Y010486D01*
X005084Y010579D01*
X004913Y010751D01*
X004820Y010975D01*
X004820Y011218D01*
X004913Y011442D01*
X005084Y011613D01*
X005309Y011706D01*
X005551Y011706D01*
X005776Y011613D01*
X005933Y011456D01*
X006927Y011456D01*
X007084Y011613D01*
X007309Y011706D01*
X007551Y011706D01*
X007776Y011613D01*
X007947Y011442D01*
X008040Y011218D01*
X008040Y010975D01*
X007947Y010751D01*
X007776Y010579D01*
X007551Y010486D01*
X007299Y010490D02*
X005561Y010490D01*
X005299Y010490D02*
X001561Y010490D01*
X001551Y010486D02*
X001309Y010486D01*
X001084Y010579D01*
X000913Y010751D01*
X000820Y010975D01*
X000820Y011218D01*
X000913Y011442D01*
X001084Y011613D01*
X001309Y011706D01*
X001551Y011706D01*
X001776Y011613D01*
X001947Y011442D01*
X002040Y011218D01*
X002040Y010975D01*
X001947Y010751D01*
X001776Y010579D01*
X001551Y010486D01*
X001299Y010490D02*
X000420Y010490D01*
X000420Y010649D02*
X001015Y010649D01*
X000889Y010807D02*
X000420Y010807D01*
X000420Y010966D02*
X000824Y010966D01*
X000820Y011124D02*
X000420Y011124D01*
X000420Y011283D02*
X000847Y011283D01*
X000913Y011441D02*
X000420Y011441D01*
X000420Y011600D02*
X001071Y011600D01*
X000420Y011758D02*
X012440Y011758D01*
X012440Y011600D02*
X011789Y011600D01*
X011947Y011441D02*
X012440Y011441D01*
X012440Y011283D02*
X012013Y011283D01*
X012040Y011124D02*
X012440Y011124D01*
X012440Y010966D02*
X012036Y010966D01*
X011971Y010807D02*
X012440Y010807D01*
X012440Y010649D02*
X011845Y010649D01*
X011631Y010173D02*
X012440Y010173D01*
X012440Y010015D02*
X011874Y010015D01*
X011947Y009942D02*
X012040Y009718D01*
X012040Y009475D01*
X011947Y009251D01*
X011776Y009079D01*
X011551Y008986D01*
X011309Y008986D01*
X011084Y009079D01*
X010913Y009251D01*
X010820Y009475D01*
X010820Y009718D01*
X010913Y009942D01*
X011084Y010113D01*
X011309Y010206D01*
X011551Y010206D01*
X011776Y010113D01*
X011947Y009942D01*
X011983Y009856D02*
X012440Y009856D01*
X012440Y009698D02*
X012040Y009698D01*
X012040Y009539D02*
X012440Y009539D01*
X012440Y009381D02*
X012001Y009381D01*
X011919Y009222D02*
X012440Y009222D01*
X012440Y009064D02*
X011738Y009064D01*
X011551Y008706D02*
X011776Y008613D01*
X011947Y008442D01*
X012040Y008218D01*
X012040Y007975D01*
X011947Y007751D01*
X011776Y007579D01*
X011551Y007486D01*
X011309Y007486D01*
X011084Y007579D01*
X010913Y007751D01*
X010820Y007975D01*
X010820Y008218D01*
X010913Y008442D01*
X011084Y008613D01*
X011309Y008706D01*
X011551Y008706D01*
X011801Y008588D02*
X012440Y008588D01*
X012440Y008430D02*
X011952Y008430D01*
X012018Y008271D02*
X012440Y008271D01*
X012440Y008113D02*
X012040Y008113D01*
X012031Y007954D02*
X012440Y007954D01*
X012440Y007796D02*
X011966Y007796D01*
X011834Y007637D02*
X012440Y007637D01*
X012440Y007479D02*
X009807Y007479D01*
X009965Y007320D02*
X012440Y007320D01*
X012440Y007162D02*
X011659Y007162D01*
X011551Y007206D02*
X011776Y007113D01*
X011947Y006942D01*
X012040Y006718D01*
X012040Y006475D01*
X011947Y006251D01*
X011776Y006079D01*
X011551Y005986D01*
X011309Y005986D01*
X011084Y006079D01*
X010927Y006236D01*
X010108Y006236D01*
X009976Y006291D01*
X008531Y007736D01*
X007933Y007736D01*
X007776Y007579D01*
X007551Y007486D01*
X007309Y007486D01*
X007084Y007579D01*
X006913Y007751D01*
X006820Y007975D01*
X006820Y008218D01*
X006913Y008442D01*
X007084Y008613D01*
X007309Y008706D01*
X007551Y008706D01*
X007776Y008613D01*
X007933Y008456D01*
X008752Y008456D01*
X008884Y008402D01*
X008985Y008300D01*
X010329Y006956D01*
X010927Y006956D01*
X011084Y007113D01*
X011309Y007206D01*
X011551Y007206D01*
X011201Y007162D02*
X010124Y007162D01*
X010282Y007003D02*
X010974Y007003D01*
X011026Y007637D02*
X009648Y007637D01*
X009490Y007796D02*
X010894Y007796D01*
X010829Y007954D02*
X009331Y007954D01*
X009173Y008113D02*
X010820Y008113D01*
X010842Y008271D02*
X009014Y008271D01*
X008816Y008430D02*
X010908Y008430D01*
X011059Y008588D02*
X007801Y008588D01*
X007551Y008986D02*
X007309Y008986D01*
X007084Y009079D01*
X006913Y009251D01*
X006820Y009475D01*
X006820Y009718D01*
X006913Y009942D01*
X007084Y010113D01*
X007309Y010206D01*
X007551Y010206D01*
X007776Y010113D01*
X007947Y009942D01*
X008040Y009718D01*
X008040Y009475D01*
X007947Y009251D01*
X007776Y009079D01*
X007551Y008986D01*
X007738Y009064D02*
X011122Y009064D01*
X010941Y009222D02*
X007919Y009222D01*
X008001Y009381D02*
X010859Y009381D01*
X010820Y009539D02*
X008040Y009539D01*
X008040Y009698D02*
X010820Y009698D01*
X010877Y009856D02*
X007983Y009856D01*
X007874Y010015D02*
X010986Y010015D01*
X011229Y010173D02*
X007631Y010173D01*
X007229Y010173D02*
X005631Y010173D01*
X005874Y010015D02*
X006986Y010015D01*
X006877Y009856D02*
X005983Y009856D01*
X006040Y009698D02*
X006820Y009698D01*
X006820Y009539D02*
X006040Y009539D01*
X006001Y009381D02*
X006859Y009381D01*
X006941Y009222D02*
X005919Y009222D01*
X005738Y009064D02*
X007122Y009064D01*
X007059Y008588D02*
X005801Y008588D01*
X005776Y008613D02*
X005947Y008442D01*
X006040Y008218D01*
X006040Y007975D01*
X005947Y007751D01*
X005776Y007579D01*
X005551Y007486D01*
X005309Y007486D01*
X005084Y007579D01*
X004913Y007751D01*
X004820Y007975D01*
X004820Y008218D01*
X004913Y008442D01*
X005084Y008613D01*
X005309Y008706D01*
X005551Y008706D01*
X005776Y008613D01*
X005952Y008430D02*
X006908Y008430D01*
X006842Y008271D02*
X006018Y008271D01*
X006040Y008113D02*
X006820Y008113D01*
X006829Y007954D02*
X006031Y007954D01*
X005966Y007796D02*
X006894Y007796D01*
X007026Y007637D02*
X005834Y007637D01*
X005026Y007637D02*
X001834Y007637D01*
X001790Y007479D02*
X008788Y007479D01*
X008630Y007637D02*
X007834Y007637D01*
X007659Y007162D02*
X009105Y007162D01*
X008947Y007320D02*
X001790Y007320D01*
X001790Y007162D02*
X007201Y007162D01*
X007309Y007206D02*
X007084Y007113D01*
X006913Y006942D01*
X006820Y006718D01*
X006820Y006475D01*
X006913Y006251D01*
X007084Y006079D01*
X007309Y005986D01*
X007551Y005986D01*
X007776Y006079D01*
X007947Y006251D01*
X008040Y006475D01*
X008040Y006718D01*
X007947Y006942D01*
X007776Y007113D01*
X007551Y007206D01*
X007309Y007206D01*
X006974Y007003D02*
X001790Y007003D01*
X001790Y006845D02*
X006873Y006845D01*
X006820Y006686D02*
X003271Y006686D01*
X003378Y006528D02*
X006820Y006528D01*
X006864Y006369D02*
X003414Y006369D01*
X003397Y006211D02*
X006953Y006211D01*
X007149Y006052D02*
X003317Y006052D01*
X003090Y005894D02*
X012440Y005894D01*
X012440Y006052D02*
X011711Y006052D01*
X011907Y006211D02*
X012440Y006211D01*
X012440Y006369D02*
X011996Y006369D01*
X012040Y006528D02*
X012440Y006528D01*
X012440Y006686D02*
X012040Y006686D01*
X011987Y006845D02*
X012440Y006845D01*
X012440Y007003D02*
X011886Y007003D01*
X011149Y006052D02*
X007711Y006052D01*
X007907Y006211D02*
X010953Y006211D01*
X009898Y006369D02*
X007996Y006369D01*
X008040Y006528D02*
X009739Y006528D01*
X009581Y006686D02*
X008040Y006686D01*
X007987Y006845D02*
X009422Y006845D01*
X009264Y007003D02*
X007886Y007003D01*
X005442Y004503D02*
X005577Y004368D01*
X005650Y004192D01*
X005650Y004001D01*
X005577Y003824D01*
X005442Y003689D01*
X005265Y003616D01*
X004595Y003616D01*
X004418Y003689D01*
X004283Y003824D01*
X004210Y004001D01*
X004210Y004192D01*
X004283Y004368D01*
X004418Y004503D01*
X004595Y004576D01*
X005265Y004576D01*
X005442Y004503D01*
X005478Y004467D02*
X011174Y004467D01*
X011154Y004448D02*
X011329Y004622D01*
X011557Y004716D01*
X011803Y004716D01*
X012031Y004622D01*
X012206Y004448D01*
X012300Y004220D01*
X012300Y003973D01*
X012206Y003745D01*
X012031Y003571D01*
X011803Y003476D01*
X011557Y003476D01*
X011329Y003571D01*
X011154Y003745D01*
X011060Y003973D01*
X011060Y004220D01*
X011154Y004448D01*
X011097Y004309D02*
X005602Y004309D01*
X005650Y004150D02*
X011060Y004150D01*
X011060Y003992D02*
X005646Y003992D01*
X005581Y003833D02*
X011118Y003833D01*
X011225Y003675D02*
X005407Y003675D01*
X005410Y003516D02*
X011460Y003516D01*
X011900Y003516D02*
X012440Y003516D01*
X012440Y003358D02*
X005581Y003358D01*
X005577Y003368D02*
X005650Y003192D01*
X005650Y003001D01*
X005577Y002824D01*
X005442Y002689D01*
X005265Y002616D01*
X004595Y002616D01*
X004418Y002689D01*
X004283Y002824D01*
X004210Y003001D01*
X004210Y003192D01*
X004283Y003368D01*
X004418Y003503D01*
X004595Y003576D01*
X005265Y003576D01*
X005442Y003503D01*
X005577Y003368D01*
X005647Y003199D02*
X012440Y003199D01*
X012440Y003041D02*
X005650Y003041D01*
X005601Y002882D02*
X009125Y002882D01*
X009012Y002770D02*
X009257Y003014D01*
X009603Y003014D01*
X009848Y002770D01*
X009848Y002423D01*
X009603Y002178D01*
X009521Y002178D01*
X009134Y001791D01*
X009002Y001736D01*
X005489Y001736D01*
X005442Y001689D01*
X005265Y001616D01*
X004595Y001616D01*
X004418Y001689D01*
X004283Y001824D01*
X004210Y002001D01*
X004210Y002192D01*
X004283Y002368D01*
X004418Y002503D01*
X004595Y002576D01*
X005265Y002576D01*
X005442Y002503D01*
X005489Y002456D01*
X008781Y002456D01*
X009012Y002687D01*
X009012Y002770D01*
X009012Y002724D02*
X005476Y002724D01*
X005292Y002565D02*
X008890Y002565D01*
X009433Y002090D02*
X010228Y002090D01*
X010243Y002054D02*
X010164Y002244D01*
X010164Y002449D01*
X010243Y002638D01*
X010388Y002783D01*
X010577Y002862D01*
X010783Y002862D01*
X010972Y002783D01*
X011117Y002638D01*
X011180Y002487D01*
X011243Y002638D01*
X011388Y002783D01*
X011577Y002862D01*
X011783Y002862D01*
X011972Y002783D01*
X012117Y002638D01*
X012196Y002449D01*
X012196Y002244D01*
X012117Y002054D01*
X011972Y001909D01*
X011783Y001831D01*
X011577Y001831D01*
X011388Y001909D01*
X011243Y002054D01*
X011180Y002206D01*
X011117Y002054D01*
X010972Y001909D01*
X010783Y001831D01*
X010577Y001831D01*
X010388Y001909D01*
X010243Y002054D01*
X010366Y001931D02*
X009274Y001931D01*
X009090Y001773D02*
X012440Y001773D01*
X012440Y001931D02*
X011994Y001931D01*
X012132Y002090D02*
X012440Y002090D01*
X012440Y002248D02*
X012196Y002248D01*
X012196Y002407D02*
X012440Y002407D01*
X012440Y002565D02*
X012147Y002565D01*
X012032Y002724D02*
X012440Y002724D01*
X012440Y002882D02*
X009735Y002882D01*
X009848Y002724D02*
X010328Y002724D01*
X010213Y002565D02*
X009848Y002565D01*
X009832Y002407D02*
X010164Y002407D01*
X010164Y002248D02*
X009673Y002248D01*
X010310Y001456D02*
X002489Y001456D01*
X002606Y001297D02*
X010205Y001297D01*
X010164Y001139D02*
X002650Y001139D01*
X002642Y000980D02*
X010170Y000980D01*
X010236Y000822D02*
X002574Y000822D01*
X002379Y000663D02*
X010384Y000663D01*
X011050Y001456D02*
X011310Y001456D01*
X011205Y001297D02*
X011155Y001297D01*
X010994Y001931D02*
X011366Y001931D01*
X011228Y002090D02*
X011132Y002090D01*
X011147Y002565D02*
X011213Y002565D01*
X011328Y002724D02*
X011032Y002724D01*
X012135Y003675D02*
X012440Y003675D01*
X012440Y003833D02*
X012242Y003833D01*
X012300Y003992D02*
X012440Y003992D01*
X012440Y004150D02*
X012300Y004150D01*
X012263Y004309D02*
X012440Y004309D01*
X012440Y004467D02*
X012186Y004467D01*
X012022Y004626D02*
X012440Y004626D01*
X012440Y004784D02*
X001290Y004784D01*
X001290Y004626D02*
X011338Y004626D01*
X012440Y004943D02*
X001290Y004943D01*
X001290Y005101D02*
X012440Y005101D01*
X012440Y005260D02*
X001290Y005260D01*
X001290Y005418D02*
X012440Y005418D01*
X012440Y005577D02*
X001290Y005577D01*
X001328Y005735D02*
X012440Y005735D01*
X012440Y001614D02*
X001421Y001614D01*
X001335Y001773D02*
X001290Y001773D01*
X001322Y002407D02*
X001290Y002407D01*
X001290Y002565D02*
X001568Y002565D01*
X001384Y002724D02*
X001290Y002724D01*
X001290Y003516D02*
X001450Y003516D01*
X001453Y003675D02*
X001290Y003675D01*
X001290Y004467D02*
X001382Y004467D01*
X002407Y003675D02*
X004453Y003675D01*
X004450Y003516D02*
X002410Y003516D01*
X002581Y003358D02*
X004279Y003358D01*
X004213Y003199D02*
X002647Y003199D01*
X002650Y003041D02*
X004210Y003041D01*
X004259Y002882D02*
X002601Y002882D01*
X002476Y002724D02*
X004384Y002724D01*
X004568Y002565D02*
X002292Y002565D01*
X002538Y002407D02*
X004322Y002407D01*
X004233Y002248D02*
X002627Y002248D01*
X002650Y002090D02*
X004210Y002090D01*
X004239Y001931D02*
X002621Y001931D01*
X002525Y001773D02*
X004335Y001773D01*
X004279Y003833D02*
X002581Y003833D01*
X002646Y003992D02*
X004214Y003992D01*
X004210Y004150D02*
X002650Y004150D01*
X002602Y004309D02*
X004258Y004309D01*
X004382Y004467D02*
X002478Y004467D01*
X002786Y005894D02*
X001487Y005894D01*
X001966Y007796D02*
X004894Y007796D01*
X004829Y007954D02*
X002031Y007954D01*
X002040Y008113D02*
X004820Y008113D01*
X004842Y008271D02*
X002018Y008271D01*
X001952Y008430D02*
X004908Y008430D01*
X005059Y008588D02*
X001801Y008588D01*
X001845Y010649D02*
X005015Y010649D01*
X004889Y010807D02*
X001971Y010807D01*
X002036Y010966D02*
X004824Y010966D01*
X004820Y011124D02*
X002040Y011124D01*
X002013Y011283D02*
X004847Y011283D01*
X004913Y011441D02*
X001947Y011441D01*
X001789Y011600D02*
X005071Y011600D01*
X005789Y011600D02*
X007071Y011600D01*
X007789Y011600D02*
X011071Y011600D01*
X010913Y011441D02*
X007947Y011441D01*
X008013Y011283D02*
X010847Y011283D01*
X010820Y011124D02*
X008040Y011124D01*
X008036Y010966D02*
X010824Y010966D01*
X010889Y010807D02*
X007971Y010807D01*
X007845Y010649D02*
X011015Y010649D01*
X012440Y011917D02*
X000420Y011917D01*
X000420Y012075D02*
X012440Y012075D01*
X012440Y012234D02*
X000420Y012234D01*
X000420Y012392D02*
X012440Y012392D01*
X012440Y012551D02*
X000420Y012551D01*
X000420Y012709D02*
X012440Y012709D01*
X012440Y012868D02*
X000420Y012868D01*
X000420Y013026D02*
X000712Y013026D01*
X000479Y013185D02*
X000420Y013185D01*
X001148Y013026D02*
X010712Y013026D01*
X010809Y012986D02*
X010584Y013079D01*
X010413Y013251D01*
X010320Y013475D01*
X010320Y013718D01*
X010413Y013942D01*
X010584Y014113D01*
X010809Y014206D01*
X011051Y014206D01*
X011276Y014113D01*
X011447Y013942D01*
X011540Y013718D01*
X011540Y013475D01*
X011447Y013251D01*
X011276Y013079D01*
X011051Y012986D01*
X010809Y012986D01*
X011148Y013026D02*
X012440Y013026D01*
X012440Y013185D02*
X011381Y013185D01*
X011485Y013343D02*
X012440Y013343D01*
X012440Y013502D02*
X011540Y013502D01*
X011540Y013660D02*
X012440Y013660D01*
X012440Y013819D02*
X011498Y013819D01*
X011412Y013977D02*
X012440Y013977D01*
X012440Y014136D02*
X011221Y014136D01*
X010639Y014136D02*
X001221Y014136D01*
X001412Y013977D02*
X003645Y013977D01*
X003668Y014000D02*
X003843Y014073D01*
X004033Y014073D01*
X004208Y014000D01*
X004342Y013866D01*
X004414Y013691D01*
X004414Y013502D01*
X010320Y013502D01*
X010320Y013660D02*
X004414Y013660D01*
X004414Y013502D02*
X004342Y013327D01*
X004208Y013193D01*
X004033Y013120D01*
X003843Y013120D01*
X003668Y013193D01*
X003534Y013327D01*
X003462Y013502D01*
X001540Y013502D01*
X001540Y013660D02*
X003462Y013660D01*
X003462Y013691D02*
X003462Y013502D01*
X003527Y013343D02*
X001485Y013343D01*
X001381Y013185D02*
X003687Y013185D01*
X004189Y013185D02*
X010479Y013185D01*
X010375Y013343D02*
X004349Y013343D01*
X004361Y013819D02*
X010362Y013819D01*
X010448Y013977D02*
X004230Y013977D01*
X003668Y014000D02*
X003534Y013866D01*
X003462Y013691D01*
X003515Y013819D02*
X001498Y013819D01*
X000639Y014136D02*
X000420Y014136D01*
X000420Y014294D02*
X012440Y014294D01*
X012440Y014453D02*
X000420Y014453D01*
X000448Y013977D02*
X000420Y013977D01*
X005845Y010649D02*
X007015Y010649D01*
X012050Y001456D02*
X012440Y001456D01*
X012440Y001297D02*
X012155Y001297D01*
X012196Y001139D02*
X012440Y001139D01*
X012440Y000980D02*
X012190Y000980D01*
X012124Y000822D02*
X012440Y000822D01*
X012440Y000663D02*
X011976Y000663D01*
D16*
X008180Y013346D03*
D17*
X010680Y004096D03*
D18*
X009430Y002596D02*
X008930Y002096D01*
X004930Y002096D01*
X001930Y001096D02*
X001430Y001096D01*
X000930Y001596D01*
X000930Y005846D01*
X001430Y006346D01*
X001430Y008096D01*
X001430Y006346D02*
X002938Y006346D01*
X005430Y011096D02*
X007430Y011096D01*
X007430Y008096D02*
X008680Y008096D01*
X010180Y006596D01*
X011430Y006596D01*
D19*
X009430Y002596D03*
M02*
