G75*
G70*
%OFA0B0*%
%FSLAX24Y24*%
%IPPOS*%
%LPD*%
%AMOC8*
5,1,8,0,0,1.08239X$1,22.5*
%
%ADD10C,0.0000*%
%ADD11C,0.0010*%
D10*
X000180Y000346D02*
X000180Y014846D01*
X012680Y014846D01*
X012680Y000346D01*
X000180Y000346D01*
X000904Y001096D02*
X000906Y001129D01*
X000912Y001161D01*
X000921Y001192D01*
X000934Y001222D01*
X000951Y001250D01*
X000971Y001276D01*
X000994Y001300D01*
X001019Y001320D01*
X001047Y001338D01*
X001076Y001352D01*
X001107Y001362D01*
X001139Y001369D01*
X001172Y001372D01*
X001205Y001371D01*
X001237Y001366D01*
X001268Y001357D01*
X001299Y001345D01*
X001327Y001329D01*
X001354Y001310D01*
X001378Y001288D01*
X001399Y001263D01*
X001418Y001236D01*
X001433Y001207D01*
X001444Y001177D01*
X001452Y001145D01*
X001456Y001112D01*
X001456Y001080D01*
X001452Y001047D01*
X001444Y001015D01*
X001433Y000985D01*
X001418Y000956D01*
X001399Y000929D01*
X001378Y000904D01*
X001354Y000882D01*
X001327Y000863D01*
X001299Y000847D01*
X001268Y000835D01*
X001237Y000826D01*
X001205Y000821D01*
X001172Y000820D01*
X001139Y000823D01*
X001107Y000830D01*
X001076Y000840D01*
X001047Y000854D01*
X001019Y000872D01*
X000994Y000892D01*
X000971Y000916D01*
X000951Y000942D01*
X000934Y000970D01*
X000921Y001000D01*
X000912Y001031D01*
X000906Y001063D01*
X000904Y001096D01*
X000904Y002346D02*
X000906Y002379D01*
X000912Y002411D01*
X000921Y002442D01*
X000934Y002472D01*
X000951Y002500D01*
X000971Y002526D01*
X000994Y002550D01*
X001019Y002570D01*
X001047Y002588D01*
X001076Y002602D01*
X001107Y002612D01*
X001139Y002619D01*
X001172Y002622D01*
X001205Y002621D01*
X001237Y002616D01*
X001268Y002607D01*
X001299Y002595D01*
X001327Y002579D01*
X001354Y002560D01*
X001378Y002538D01*
X001399Y002513D01*
X001418Y002486D01*
X001433Y002457D01*
X001444Y002427D01*
X001452Y002395D01*
X001456Y002362D01*
X001456Y002330D01*
X001452Y002297D01*
X001444Y002265D01*
X001433Y002235D01*
X001418Y002206D01*
X001399Y002179D01*
X001378Y002154D01*
X001354Y002132D01*
X001327Y002113D01*
X001299Y002097D01*
X001268Y002085D01*
X001237Y002076D01*
X001205Y002071D01*
X001172Y002070D01*
X001139Y002073D01*
X001107Y002080D01*
X001076Y002090D01*
X001047Y002104D01*
X001019Y002122D01*
X000994Y002142D01*
X000971Y002166D01*
X000951Y002192D01*
X000934Y002220D01*
X000921Y002250D01*
X000912Y002281D01*
X000906Y002313D01*
X000904Y002346D01*
X001904Y002346D02*
X001906Y002379D01*
X001912Y002411D01*
X001921Y002442D01*
X001934Y002472D01*
X001951Y002500D01*
X001971Y002526D01*
X001994Y002550D01*
X002019Y002570D01*
X002047Y002588D01*
X002076Y002602D01*
X002107Y002612D01*
X002139Y002619D01*
X002172Y002622D01*
X002205Y002621D01*
X002237Y002616D01*
X002268Y002607D01*
X002299Y002595D01*
X002327Y002579D01*
X002354Y002560D01*
X002378Y002538D01*
X002399Y002513D01*
X002418Y002486D01*
X002433Y002457D01*
X002444Y002427D01*
X002452Y002395D01*
X002456Y002362D01*
X002456Y002330D01*
X002452Y002297D01*
X002444Y002265D01*
X002433Y002235D01*
X002418Y002206D01*
X002399Y002179D01*
X002378Y002154D01*
X002354Y002132D01*
X002327Y002113D01*
X002299Y002097D01*
X002268Y002085D01*
X002237Y002076D01*
X002205Y002071D01*
X002172Y002070D01*
X002139Y002073D01*
X002107Y002080D01*
X002076Y002090D01*
X002047Y002104D01*
X002019Y002122D01*
X001994Y002142D01*
X001971Y002166D01*
X001951Y002192D01*
X001934Y002220D01*
X001921Y002250D01*
X001912Y002281D01*
X001906Y002313D01*
X001904Y002346D01*
X001904Y001096D02*
X001906Y001129D01*
X001912Y001161D01*
X001921Y001192D01*
X001934Y001222D01*
X001951Y001250D01*
X001971Y001276D01*
X001994Y001300D01*
X002019Y001320D01*
X002047Y001338D01*
X002076Y001352D01*
X002107Y001362D01*
X002139Y001369D01*
X002172Y001372D01*
X002205Y001371D01*
X002237Y001366D01*
X002268Y001357D01*
X002299Y001345D01*
X002327Y001329D01*
X002354Y001310D01*
X002378Y001288D01*
X002399Y001263D01*
X002418Y001236D01*
X002433Y001207D01*
X002444Y001177D01*
X002452Y001145D01*
X002456Y001112D01*
X002456Y001080D01*
X002452Y001047D01*
X002444Y001015D01*
X002433Y000985D01*
X002418Y000956D01*
X002399Y000929D01*
X002378Y000904D01*
X002354Y000882D01*
X002327Y000863D01*
X002299Y000847D01*
X002268Y000835D01*
X002237Y000826D01*
X002205Y000821D01*
X002172Y000820D01*
X002139Y000823D01*
X002107Y000830D01*
X002076Y000840D01*
X002047Y000854D01*
X002019Y000872D01*
X001994Y000892D01*
X001971Y000916D01*
X001951Y000942D01*
X001934Y000970D01*
X001921Y001000D01*
X001912Y001031D01*
X001906Y001063D01*
X001904Y001096D01*
D11*
X001780Y000696D02*
X002580Y001496D01*
X002580Y000696D02*
X001780Y001496D01*
X001780Y001096D02*
X002580Y001096D01*
X001780Y001946D02*
X002580Y002746D01*
X002580Y001946D02*
X001780Y002746D01*
X001780Y002346D02*
X002580Y002346D01*
X003030Y002996D02*
X003830Y002196D01*
X003030Y002196D02*
X003830Y002996D01*
X002180Y004096D02*
X002180Y004496D01*
X002580Y004496D01*
X002580Y003696D01*
X001780Y003696D01*
X001780Y004496D01*
X002180Y004496D01*
X001180Y004496D02*
X001180Y004096D01*
X001180Y004496D02*
X001580Y004496D01*
X001580Y003696D01*
X000780Y003696D01*
X000780Y004496D01*
X001180Y004496D01*
X001030Y006196D02*
X001830Y006996D01*
X001030Y006996D01*
X001830Y006196D01*
X001030Y006196D01*
X001030Y007696D02*
X001830Y008496D01*
X001030Y008496D01*
X001830Y007696D01*
X001030Y007696D01*
X001030Y009196D02*
X001830Y009996D01*
X001030Y009996D01*
X001830Y009196D01*
X001030Y009196D01*
X001030Y010696D02*
X001830Y011496D01*
X001030Y011496D01*
X001830Y010696D01*
X001030Y010696D01*
X000540Y013596D02*
X000542Y013635D01*
X000548Y013673D01*
X000557Y013711D01*
X000571Y013747D01*
X000587Y013783D01*
X000608Y013816D01*
X000631Y013847D01*
X000658Y013875D01*
X000687Y013901D01*
X000718Y013924D01*
X000752Y013943D01*
X000788Y013959D01*
X000824Y013971D01*
X000862Y013980D01*
X000901Y013985D01*
X000940Y013986D01*
X000978Y013983D01*
X001017Y013976D01*
X001054Y013966D01*
X001090Y013951D01*
X001125Y013934D01*
X001158Y013913D01*
X001188Y013888D01*
X001216Y013861D01*
X001241Y013831D01*
X001263Y013799D01*
X001281Y013765D01*
X001296Y013729D01*
X001308Y013692D01*
X001316Y013654D01*
X001320Y013615D01*
X001320Y013577D01*
X001316Y013538D01*
X001308Y013500D01*
X001296Y013463D01*
X001281Y013427D01*
X001263Y013393D01*
X001241Y013361D01*
X001216Y013331D01*
X001188Y013304D01*
X001158Y013279D01*
X001125Y013258D01*
X001090Y013241D01*
X001054Y013226D01*
X001017Y013216D01*
X000978Y013209D01*
X000940Y013206D01*
X000901Y013207D01*
X000862Y013212D01*
X000824Y013221D01*
X000788Y013233D01*
X000752Y013249D01*
X000718Y013268D01*
X000687Y013291D01*
X000658Y013317D01*
X000631Y013345D01*
X000608Y013376D01*
X000587Y013409D01*
X000571Y013445D01*
X000557Y013481D01*
X000548Y013519D01*
X000542Y013557D01*
X000540Y013596D01*
X000530Y013196D02*
X001330Y013996D01*
X001540Y013596D02*
X001542Y013635D01*
X001548Y013673D01*
X001557Y013711D01*
X001571Y013747D01*
X001587Y013783D01*
X001608Y013816D01*
X001631Y013847D01*
X001658Y013875D01*
X001687Y013901D01*
X001718Y013924D01*
X001752Y013943D01*
X001788Y013959D01*
X001824Y013971D01*
X001862Y013980D01*
X001901Y013985D01*
X001940Y013986D01*
X001978Y013983D01*
X002017Y013976D01*
X002054Y013966D01*
X002090Y013951D01*
X002125Y013934D01*
X002158Y013913D01*
X002188Y013888D01*
X002216Y013861D01*
X002241Y013831D01*
X002263Y013799D01*
X002281Y013765D01*
X002296Y013729D01*
X002308Y013692D01*
X002316Y013654D01*
X002320Y013615D01*
X002320Y013577D01*
X002316Y013538D01*
X002308Y013500D01*
X002296Y013463D01*
X002281Y013427D01*
X002263Y013393D01*
X002241Y013361D01*
X002216Y013331D01*
X002188Y013304D01*
X002158Y013279D01*
X002125Y013258D01*
X002090Y013241D01*
X002054Y013226D01*
X002017Y013216D01*
X001978Y013209D01*
X001940Y013206D01*
X001901Y013207D01*
X001862Y013212D01*
X001824Y013221D01*
X001788Y013233D01*
X001752Y013249D01*
X001718Y013268D01*
X001687Y013291D01*
X001658Y013317D01*
X001631Y013345D01*
X001608Y013376D01*
X001587Y013409D01*
X001571Y013445D01*
X001557Y013481D01*
X001548Y013519D01*
X001542Y013557D01*
X001540Y013596D01*
X001530Y013196D02*
X002330Y013996D01*
X004280Y013346D02*
X005080Y013346D01*
X004680Y012946D02*
X004680Y013746D01*
X004290Y013346D02*
X004292Y013385D01*
X004298Y013423D01*
X004307Y013461D01*
X004321Y013497D01*
X004337Y013533D01*
X004358Y013566D01*
X004381Y013597D01*
X004408Y013625D01*
X004437Y013651D01*
X004468Y013674D01*
X004502Y013693D01*
X004538Y013709D01*
X004574Y013721D01*
X004612Y013730D01*
X004651Y013735D01*
X004690Y013736D01*
X004728Y013733D01*
X004767Y013726D01*
X004804Y013716D01*
X004840Y013701D01*
X004875Y013684D01*
X004908Y013663D01*
X004938Y013638D01*
X004966Y013611D01*
X004991Y013581D01*
X005013Y013549D01*
X005031Y013515D01*
X005046Y013479D01*
X005058Y013442D01*
X005066Y013404D01*
X005070Y013365D01*
X005070Y013327D01*
X005066Y013288D01*
X005058Y013250D01*
X005046Y013213D01*
X005031Y013177D01*
X005013Y013143D01*
X004991Y013111D01*
X004966Y013081D01*
X004938Y013054D01*
X004908Y013029D01*
X004875Y013008D01*
X004840Y012991D01*
X004804Y012976D01*
X004767Y012966D01*
X004728Y012959D01*
X004690Y012956D01*
X004651Y012957D01*
X004612Y012962D01*
X004574Y012971D01*
X004538Y012983D01*
X004502Y012999D01*
X004468Y013018D01*
X004437Y013041D01*
X004408Y013067D01*
X004381Y013095D01*
X004358Y013126D01*
X004337Y013159D01*
X004321Y013195D01*
X004307Y013231D01*
X004298Y013269D01*
X004292Y013307D01*
X004290Y013346D01*
X004485Y013346D02*
X004487Y013374D01*
X004493Y013401D01*
X004503Y013427D01*
X004516Y013451D01*
X004533Y013474D01*
X004552Y013493D01*
X004575Y013510D01*
X004599Y013523D01*
X004625Y013533D01*
X004652Y013539D01*
X004680Y013541D01*
X004708Y013539D01*
X004735Y013533D01*
X004761Y013523D01*
X004785Y013510D01*
X004808Y013493D01*
X004827Y013474D01*
X004844Y013451D01*
X004857Y013427D01*
X004867Y013401D01*
X004873Y013374D01*
X004875Y013346D01*
X004873Y013318D01*
X004867Y013291D01*
X004857Y013265D01*
X004844Y013241D01*
X004827Y013218D01*
X004808Y013199D01*
X004785Y013182D01*
X004761Y013169D01*
X004735Y013159D01*
X004708Y013153D01*
X004680Y013151D01*
X004652Y013153D01*
X004625Y013159D01*
X004599Y013169D01*
X004575Y013182D01*
X004552Y013199D01*
X004533Y013218D01*
X004516Y013241D01*
X004503Y013265D01*
X004493Y013291D01*
X004487Y013318D01*
X004485Y013346D01*
X005830Y011496D02*
X005030Y010696D01*
X005030Y011496D02*
X005830Y011496D01*
X005030Y011496D02*
X005830Y010696D01*
X005030Y010696D01*
X005830Y009996D02*
X005030Y009196D01*
X005030Y009996D02*
X005830Y009996D01*
X005030Y009996D02*
X005830Y009196D01*
X005030Y009196D01*
X005830Y008496D02*
X005030Y007696D01*
X005030Y008496D02*
X005830Y008496D01*
X005030Y008496D02*
X005830Y007696D01*
X005030Y007696D01*
X005830Y006996D02*
X005030Y006196D01*
X005030Y006996D02*
X005830Y006996D01*
X005030Y006996D02*
X005830Y006196D01*
X005030Y006196D01*
X007030Y007696D02*
X007830Y008496D01*
X007030Y008496D01*
X007830Y007696D01*
X007030Y007696D01*
X007030Y009196D02*
X007830Y009996D01*
X007030Y009996D01*
X007830Y009196D01*
X007030Y009196D01*
X007030Y010696D02*
X007830Y011496D01*
X007030Y011496D01*
X007830Y010696D01*
X007030Y010696D01*
X007938Y013596D02*
X007938Y013996D01*
X008338Y013596D01*
X007938Y013196D01*
X007538Y013596D01*
X007938Y013996D01*
X008922Y013996D02*
X008922Y013596D01*
X008922Y013996D02*
X009322Y013596D01*
X008922Y013196D01*
X008522Y013596D01*
X008922Y013996D01*
X010540Y013596D02*
X010542Y013635D01*
X010548Y013673D01*
X010557Y013711D01*
X010571Y013747D01*
X010587Y013783D01*
X010608Y013816D01*
X010631Y013847D01*
X010658Y013875D01*
X010687Y013901D01*
X010718Y013924D01*
X010752Y013943D01*
X010788Y013959D01*
X010824Y013971D01*
X010862Y013980D01*
X010901Y013985D01*
X010940Y013986D01*
X010978Y013983D01*
X011017Y013976D01*
X011054Y013966D01*
X011090Y013951D01*
X011125Y013934D01*
X011158Y013913D01*
X011188Y013888D01*
X011216Y013861D01*
X011241Y013831D01*
X011263Y013799D01*
X011281Y013765D01*
X011296Y013729D01*
X011308Y013692D01*
X011316Y013654D01*
X011320Y013615D01*
X011320Y013577D01*
X011316Y013538D01*
X011308Y013500D01*
X011296Y013463D01*
X011281Y013427D01*
X011263Y013393D01*
X011241Y013361D01*
X011216Y013331D01*
X011188Y013304D01*
X011158Y013279D01*
X011125Y013258D01*
X011090Y013241D01*
X011054Y013226D01*
X011017Y013216D01*
X010978Y013209D01*
X010940Y013206D01*
X010901Y013207D01*
X010862Y013212D01*
X010824Y013221D01*
X010788Y013233D01*
X010752Y013249D01*
X010718Y013268D01*
X010687Y013291D01*
X010658Y013317D01*
X010631Y013345D01*
X010608Y013376D01*
X010587Y013409D01*
X010571Y013445D01*
X010557Y013481D01*
X010548Y013519D01*
X010542Y013557D01*
X010540Y013596D01*
X010530Y013196D02*
X011330Y013996D01*
X011540Y013596D02*
X011542Y013635D01*
X011548Y013673D01*
X011557Y013711D01*
X011571Y013747D01*
X011587Y013783D01*
X011608Y013816D01*
X011631Y013847D01*
X011658Y013875D01*
X011687Y013901D01*
X011718Y013924D01*
X011752Y013943D01*
X011788Y013959D01*
X011824Y013971D01*
X011862Y013980D01*
X011901Y013985D01*
X011940Y013986D01*
X011978Y013983D01*
X012017Y013976D01*
X012054Y013966D01*
X012090Y013951D01*
X012125Y013934D01*
X012158Y013913D01*
X012188Y013888D01*
X012216Y013861D01*
X012241Y013831D01*
X012263Y013799D01*
X012281Y013765D01*
X012296Y013729D01*
X012308Y013692D01*
X012316Y013654D01*
X012320Y013615D01*
X012320Y013577D01*
X012316Y013538D01*
X012308Y013500D01*
X012296Y013463D01*
X012281Y013427D01*
X012263Y013393D01*
X012241Y013361D01*
X012216Y013331D01*
X012188Y013304D01*
X012158Y013279D01*
X012125Y013258D01*
X012090Y013241D01*
X012054Y013226D01*
X012017Y013216D01*
X011978Y013209D01*
X011940Y013206D01*
X011901Y013207D01*
X011862Y013212D01*
X011824Y013221D01*
X011788Y013233D01*
X011752Y013249D01*
X011718Y013268D01*
X011687Y013291D01*
X011658Y013317D01*
X011631Y013345D01*
X011608Y013376D01*
X011587Y013409D01*
X011571Y013445D01*
X011557Y013481D01*
X011548Y013519D01*
X011542Y013557D01*
X011540Y013596D01*
X011530Y013196D02*
X012330Y013996D01*
X011830Y011496D02*
X011030Y010696D01*
X011030Y011496D02*
X011830Y011496D01*
X011030Y011496D02*
X011830Y010696D01*
X011030Y010696D01*
X011830Y009996D02*
X011030Y009196D01*
X011030Y009996D02*
X011830Y009996D01*
X011030Y009996D02*
X011830Y009196D01*
X011030Y009196D01*
X011830Y008496D02*
X011030Y007696D01*
X011030Y008496D02*
X011830Y008496D01*
X011030Y008496D02*
X011830Y007696D01*
X011030Y007696D01*
X009922Y006746D02*
X009922Y006346D01*
X009922Y006746D02*
X010322Y006346D01*
X009922Y005946D01*
X009522Y006346D01*
X009922Y006746D01*
X008938Y006746D02*
X008938Y006346D01*
X008938Y006746D02*
X009338Y006346D01*
X008938Y005946D01*
X008538Y006346D01*
X008938Y006746D01*
X007540Y004096D02*
X007542Y004135D01*
X007548Y004173D01*
X007557Y004211D01*
X007571Y004247D01*
X007587Y004283D01*
X007608Y004316D01*
X007631Y004347D01*
X007658Y004375D01*
X007687Y004401D01*
X007718Y004424D01*
X007752Y004443D01*
X007788Y004459D01*
X007824Y004471D01*
X007862Y004480D01*
X007901Y004485D01*
X007940Y004486D01*
X007978Y004483D01*
X008017Y004476D01*
X008054Y004466D01*
X008090Y004451D01*
X008125Y004434D01*
X008158Y004413D01*
X008188Y004388D01*
X008216Y004361D01*
X008241Y004331D01*
X008263Y004299D01*
X008281Y004265D01*
X008296Y004229D01*
X008308Y004192D01*
X008316Y004154D01*
X008320Y004115D01*
X008320Y004077D01*
X008316Y004038D01*
X008308Y004000D01*
X008296Y003963D01*
X008281Y003927D01*
X008263Y003893D01*
X008241Y003861D01*
X008216Y003831D01*
X008188Y003804D01*
X008158Y003779D01*
X008125Y003758D01*
X008090Y003741D01*
X008054Y003726D01*
X008017Y003716D01*
X007978Y003709D01*
X007940Y003706D01*
X007901Y003707D01*
X007862Y003712D01*
X007824Y003721D01*
X007788Y003733D01*
X007752Y003749D01*
X007718Y003768D01*
X007687Y003791D01*
X007658Y003817D01*
X007631Y003845D01*
X007608Y003876D01*
X007587Y003909D01*
X007571Y003945D01*
X007557Y003981D01*
X007548Y004019D01*
X007542Y004057D01*
X007540Y004096D01*
X007530Y003696D02*
X008330Y004496D01*
X007540Y003096D02*
X007542Y003135D01*
X007548Y003173D01*
X007557Y003211D01*
X007571Y003247D01*
X007587Y003283D01*
X007608Y003316D01*
X007631Y003347D01*
X007658Y003375D01*
X007687Y003401D01*
X007718Y003424D01*
X007752Y003443D01*
X007788Y003459D01*
X007824Y003471D01*
X007862Y003480D01*
X007901Y003485D01*
X007940Y003486D01*
X007978Y003483D01*
X008017Y003476D01*
X008054Y003466D01*
X008090Y003451D01*
X008125Y003434D01*
X008158Y003413D01*
X008188Y003388D01*
X008216Y003361D01*
X008241Y003331D01*
X008263Y003299D01*
X008281Y003265D01*
X008296Y003229D01*
X008308Y003192D01*
X008316Y003154D01*
X008320Y003115D01*
X008320Y003077D01*
X008316Y003038D01*
X008308Y003000D01*
X008296Y002963D01*
X008281Y002927D01*
X008263Y002893D01*
X008241Y002861D01*
X008216Y002831D01*
X008188Y002804D01*
X008158Y002779D01*
X008125Y002758D01*
X008090Y002741D01*
X008054Y002726D01*
X008017Y002716D01*
X007978Y002709D01*
X007940Y002706D01*
X007901Y002707D01*
X007862Y002712D01*
X007824Y002721D01*
X007788Y002733D01*
X007752Y002749D01*
X007718Y002768D01*
X007687Y002791D01*
X007658Y002817D01*
X007631Y002845D01*
X007608Y002876D01*
X007587Y002909D01*
X007571Y002945D01*
X007557Y002981D01*
X007548Y003019D01*
X007542Y003057D01*
X007540Y003096D01*
X007530Y002696D02*
X008330Y003496D01*
X007540Y002096D02*
X007542Y002135D01*
X007548Y002173D01*
X007557Y002211D01*
X007571Y002247D01*
X007587Y002283D01*
X007608Y002316D01*
X007631Y002347D01*
X007658Y002375D01*
X007687Y002401D01*
X007718Y002424D01*
X007752Y002443D01*
X007788Y002459D01*
X007824Y002471D01*
X007862Y002480D01*
X007901Y002485D01*
X007940Y002486D01*
X007978Y002483D01*
X008017Y002476D01*
X008054Y002466D01*
X008090Y002451D01*
X008125Y002434D01*
X008158Y002413D01*
X008188Y002388D01*
X008216Y002361D01*
X008241Y002331D01*
X008263Y002299D01*
X008281Y002265D01*
X008296Y002229D01*
X008308Y002192D01*
X008316Y002154D01*
X008320Y002115D01*
X008320Y002077D01*
X008316Y002038D01*
X008308Y002000D01*
X008296Y001963D01*
X008281Y001927D01*
X008263Y001893D01*
X008241Y001861D01*
X008216Y001831D01*
X008188Y001804D01*
X008158Y001779D01*
X008125Y001758D01*
X008090Y001741D01*
X008054Y001726D01*
X008017Y001716D01*
X007978Y001709D01*
X007940Y001706D01*
X007901Y001707D01*
X007862Y001712D01*
X007824Y001721D01*
X007788Y001733D01*
X007752Y001749D01*
X007718Y001768D01*
X007687Y001791D01*
X007658Y001817D01*
X007631Y001845D01*
X007608Y001876D01*
X007587Y001909D01*
X007571Y001945D01*
X007557Y001981D01*
X007548Y002019D01*
X007542Y002057D01*
X007540Y002096D01*
X007530Y001696D02*
X008330Y002496D01*
X007540Y001096D02*
X007542Y001135D01*
X007548Y001173D01*
X007557Y001211D01*
X007571Y001247D01*
X007587Y001283D01*
X007608Y001316D01*
X007631Y001347D01*
X007658Y001375D01*
X007687Y001401D01*
X007718Y001424D01*
X007752Y001443D01*
X007788Y001459D01*
X007824Y001471D01*
X007862Y001480D01*
X007901Y001485D01*
X007940Y001486D01*
X007978Y001483D01*
X008017Y001476D01*
X008054Y001466D01*
X008090Y001451D01*
X008125Y001434D01*
X008158Y001413D01*
X008188Y001388D01*
X008216Y001361D01*
X008241Y001331D01*
X008263Y001299D01*
X008281Y001265D01*
X008296Y001229D01*
X008308Y001192D01*
X008316Y001154D01*
X008320Y001115D01*
X008320Y001077D01*
X008316Y001038D01*
X008308Y001000D01*
X008296Y000963D01*
X008281Y000927D01*
X008263Y000893D01*
X008241Y000861D01*
X008216Y000831D01*
X008188Y000804D01*
X008158Y000779D01*
X008125Y000758D01*
X008090Y000741D01*
X008054Y000726D01*
X008017Y000716D01*
X007978Y000709D01*
X007940Y000706D01*
X007901Y000707D01*
X007862Y000712D01*
X007824Y000721D01*
X007788Y000733D01*
X007752Y000749D01*
X007718Y000768D01*
X007687Y000791D01*
X007658Y000817D01*
X007631Y000845D01*
X007608Y000876D01*
X007587Y000909D01*
X007571Y000945D01*
X007557Y000981D01*
X007548Y001019D01*
X007542Y001057D01*
X007540Y001096D01*
X007530Y000696D02*
X008330Y001496D01*
X010540Y001096D02*
X010542Y001135D01*
X010548Y001173D01*
X010557Y001211D01*
X010571Y001247D01*
X010587Y001283D01*
X010608Y001316D01*
X010631Y001347D01*
X010658Y001375D01*
X010687Y001401D01*
X010718Y001424D01*
X010752Y001443D01*
X010788Y001459D01*
X010824Y001471D01*
X010862Y001480D01*
X010901Y001485D01*
X010940Y001486D01*
X010978Y001483D01*
X011017Y001476D01*
X011054Y001466D01*
X011090Y001451D01*
X011125Y001434D01*
X011158Y001413D01*
X011188Y001388D01*
X011216Y001361D01*
X011241Y001331D01*
X011263Y001299D01*
X011281Y001265D01*
X011296Y001229D01*
X011308Y001192D01*
X011316Y001154D01*
X011320Y001115D01*
X011320Y001077D01*
X011316Y001038D01*
X011308Y001000D01*
X011296Y000963D01*
X011281Y000927D01*
X011263Y000893D01*
X011241Y000861D01*
X011216Y000831D01*
X011188Y000804D01*
X011158Y000779D01*
X011125Y000758D01*
X011090Y000741D01*
X011054Y000726D01*
X011017Y000716D01*
X010978Y000709D01*
X010940Y000706D01*
X010901Y000707D01*
X010862Y000712D01*
X010824Y000721D01*
X010788Y000733D01*
X010752Y000749D01*
X010718Y000768D01*
X010687Y000791D01*
X010658Y000817D01*
X010631Y000845D01*
X010608Y000876D01*
X010587Y000909D01*
X010571Y000945D01*
X010557Y000981D01*
X010548Y001019D01*
X010542Y001057D01*
X010540Y001096D01*
X010530Y000696D02*
X011330Y001496D01*
X010540Y002096D02*
X010542Y002135D01*
X010548Y002173D01*
X010557Y002211D01*
X010571Y002247D01*
X010587Y002283D01*
X010608Y002316D01*
X010631Y002347D01*
X010658Y002375D01*
X010687Y002401D01*
X010718Y002424D01*
X010752Y002443D01*
X010788Y002459D01*
X010824Y002471D01*
X010862Y002480D01*
X010901Y002485D01*
X010940Y002486D01*
X010978Y002483D01*
X011017Y002476D01*
X011054Y002466D01*
X011090Y002451D01*
X011125Y002434D01*
X011158Y002413D01*
X011188Y002388D01*
X011216Y002361D01*
X011241Y002331D01*
X011263Y002299D01*
X011281Y002265D01*
X011296Y002229D01*
X011308Y002192D01*
X011316Y002154D01*
X011320Y002115D01*
X011320Y002077D01*
X011316Y002038D01*
X011308Y002000D01*
X011296Y001963D01*
X011281Y001927D01*
X011263Y001893D01*
X011241Y001861D01*
X011216Y001831D01*
X011188Y001804D01*
X011158Y001779D01*
X011125Y001758D01*
X011090Y001741D01*
X011054Y001726D01*
X011017Y001716D01*
X010978Y001709D01*
X010940Y001706D01*
X010901Y001707D01*
X010862Y001712D01*
X010824Y001721D01*
X010788Y001733D01*
X010752Y001749D01*
X010718Y001768D01*
X010687Y001791D01*
X010658Y001817D01*
X010631Y001845D01*
X010608Y001876D01*
X010587Y001909D01*
X010571Y001945D01*
X010557Y001981D01*
X010548Y002019D01*
X010542Y002057D01*
X010540Y002096D01*
X010530Y001696D02*
X011330Y002496D01*
X010540Y003096D02*
X010542Y003135D01*
X010548Y003173D01*
X010557Y003211D01*
X010571Y003247D01*
X010587Y003283D01*
X010608Y003316D01*
X010631Y003347D01*
X010658Y003375D01*
X010687Y003401D01*
X010718Y003424D01*
X010752Y003443D01*
X010788Y003459D01*
X010824Y003471D01*
X010862Y003480D01*
X010901Y003485D01*
X010940Y003486D01*
X010978Y003483D01*
X011017Y003476D01*
X011054Y003466D01*
X011090Y003451D01*
X011125Y003434D01*
X011158Y003413D01*
X011188Y003388D01*
X011216Y003361D01*
X011241Y003331D01*
X011263Y003299D01*
X011281Y003265D01*
X011296Y003229D01*
X011308Y003192D01*
X011316Y003154D01*
X011320Y003115D01*
X011320Y003077D01*
X011316Y003038D01*
X011308Y003000D01*
X011296Y002963D01*
X011281Y002927D01*
X011263Y002893D01*
X011241Y002861D01*
X011216Y002831D01*
X011188Y002804D01*
X011158Y002779D01*
X011125Y002758D01*
X011090Y002741D01*
X011054Y002726D01*
X011017Y002716D01*
X010978Y002709D01*
X010940Y002706D01*
X010901Y002707D01*
X010862Y002712D01*
X010824Y002721D01*
X010788Y002733D01*
X010752Y002749D01*
X010718Y002768D01*
X010687Y002791D01*
X010658Y002817D01*
X010631Y002845D01*
X010608Y002876D01*
X010587Y002909D01*
X010571Y002945D01*
X010557Y002981D01*
X010548Y003019D01*
X010542Y003057D01*
X010540Y003096D01*
X010530Y002696D02*
X011330Y003496D01*
X010540Y004096D02*
X010542Y004135D01*
X010548Y004173D01*
X010557Y004211D01*
X010571Y004247D01*
X010587Y004283D01*
X010608Y004316D01*
X010631Y004347D01*
X010658Y004375D01*
X010687Y004401D01*
X010718Y004424D01*
X010752Y004443D01*
X010788Y004459D01*
X010824Y004471D01*
X010862Y004480D01*
X010901Y004485D01*
X010940Y004486D01*
X010978Y004483D01*
X011017Y004476D01*
X011054Y004466D01*
X011090Y004451D01*
X011125Y004434D01*
X011158Y004413D01*
X011188Y004388D01*
X011216Y004361D01*
X011241Y004331D01*
X011263Y004299D01*
X011281Y004265D01*
X011296Y004229D01*
X011308Y004192D01*
X011316Y004154D01*
X011320Y004115D01*
X011320Y004077D01*
X011316Y004038D01*
X011308Y004000D01*
X011296Y003963D01*
X011281Y003927D01*
X011263Y003893D01*
X011241Y003861D01*
X011216Y003831D01*
X011188Y003804D01*
X011158Y003779D01*
X011125Y003758D01*
X011090Y003741D01*
X011054Y003726D01*
X011017Y003716D01*
X010978Y003709D01*
X010940Y003706D01*
X010901Y003707D01*
X010862Y003712D01*
X010824Y003721D01*
X010788Y003733D01*
X010752Y003749D01*
X010718Y003768D01*
X010687Y003791D01*
X010658Y003817D01*
X010631Y003845D01*
X010608Y003876D01*
X010587Y003909D01*
X010571Y003945D01*
X010557Y003981D01*
X010548Y004019D01*
X010542Y004057D01*
X010540Y004096D01*
X010530Y003696D02*
X011330Y004496D01*
X001580Y002746D02*
X000780Y001946D01*
X001580Y001946D02*
X000780Y002746D01*
X000780Y002346D02*
X001580Y002346D01*
X001580Y001496D02*
X000780Y000696D01*
X001580Y000696D02*
X000780Y001496D01*
X000780Y001096D02*
X001580Y001096D01*
M02*
