G75*
G70*
%OFA0B0*%
%FSLAX24Y24*%
%IPPOS*%
%LPD*%
%AMOC8*
5,1,8,0,0,1.08239X$1,22.5*
%
%ADD10C,0.0591*%
%ADD11R,0.0512X0.0512*%
%ADD12C,0.0512*%
%ADD13C,0.0780*%
%ADD14C,0.0520*%
%ADD15C,0.0800*%
%ADD16C,0.2580*%
%ADD17R,0.0800X0.0800*%
D10*
X010680Y001096D03*
X011680Y001096D03*
X011680Y002346D03*
X010680Y002346D03*
D11*
X003922Y006346D03*
X004922Y013596D03*
D12*
X003938Y013596D03*
X002938Y006346D03*
D13*
X001430Y008096D03*
X001430Y009596D03*
X001430Y011096D03*
X001930Y013596D03*
X000930Y013596D03*
X005430Y011096D03*
X005430Y009596D03*
X005430Y008096D03*
X007430Y008096D03*
X007430Y006596D03*
X007430Y009596D03*
X007430Y011096D03*
X010930Y013596D03*
X011930Y013596D03*
X011430Y011096D03*
X011430Y009596D03*
X011430Y008096D03*
X011430Y006596D03*
D14*
X002170Y001096D02*
X001690Y001096D01*
X001690Y002096D02*
X002170Y002096D01*
X002170Y003096D02*
X001690Y003096D01*
X001690Y004096D02*
X002170Y004096D01*
X004690Y004096D02*
X005170Y004096D01*
X005170Y003096D02*
X004690Y003096D01*
X004690Y002096D02*
X005170Y002096D01*
X005170Y001096D02*
X004690Y001096D01*
D15*
X011680Y004096D03*
D16*
X008180Y013346D03*
D17*
X010680Y004096D03*
M02*
