G75*
%MOIN*%
%OFA0B0*%
%FSLAX24Y24*%
%IPPOS*%
%LPD*%
%AMOC8*
5,1,8,0,0,1.08239X$1,22.5*
%
%ADD10C,0.0000*%
%ADD11C,0.0591*%
%ADD12R,0.0512X0.0512*%
%ADD13C,0.0512*%
%ADD14C,0.0780*%
%ADD15C,0.0520*%
%ADD16C,0.0800*%
%ADD17C,0.2580*%
%ADD18R,0.0800X0.0800*%
D10*
X000180Y000346D02*
X000180Y014846D01*
X012680Y014846D01*
X012680Y000346D01*
X000180Y000346D01*
X000904Y001096D02*
X000906Y001129D01*
X000912Y001161D01*
X000921Y001192D01*
X000934Y001222D01*
X000951Y001250D01*
X000971Y001276D01*
X000994Y001300D01*
X001019Y001320D01*
X001047Y001338D01*
X001076Y001352D01*
X001107Y001362D01*
X001139Y001369D01*
X001172Y001372D01*
X001205Y001371D01*
X001237Y001366D01*
X001268Y001357D01*
X001299Y001345D01*
X001327Y001329D01*
X001354Y001310D01*
X001378Y001288D01*
X001399Y001263D01*
X001418Y001236D01*
X001433Y001207D01*
X001444Y001177D01*
X001452Y001145D01*
X001456Y001112D01*
X001456Y001080D01*
X001452Y001047D01*
X001444Y001015D01*
X001433Y000985D01*
X001418Y000956D01*
X001399Y000929D01*
X001378Y000904D01*
X001354Y000882D01*
X001327Y000863D01*
X001299Y000847D01*
X001268Y000835D01*
X001237Y000826D01*
X001205Y000821D01*
X001172Y000820D01*
X001139Y000823D01*
X001107Y000830D01*
X001076Y000840D01*
X001047Y000854D01*
X001019Y000872D01*
X000994Y000892D01*
X000971Y000916D01*
X000951Y000942D01*
X000934Y000970D01*
X000921Y001000D01*
X000912Y001031D01*
X000906Y001063D01*
X000904Y001096D01*
X000904Y002346D02*
X000906Y002379D01*
X000912Y002411D01*
X000921Y002442D01*
X000934Y002472D01*
X000951Y002500D01*
X000971Y002526D01*
X000994Y002550D01*
X001019Y002570D01*
X001047Y002588D01*
X001076Y002602D01*
X001107Y002612D01*
X001139Y002619D01*
X001172Y002622D01*
X001205Y002621D01*
X001237Y002616D01*
X001268Y002607D01*
X001299Y002595D01*
X001327Y002579D01*
X001354Y002560D01*
X001378Y002538D01*
X001399Y002513D01*
X001418Y002486D01*
X001433Y002457D01*
X001444Y002427D01*
X001452Y002395D01*
X001456Y002362D01*
X001456Y002330D01*
X001452Y002297D01*
X001444Y002265D01*
X001433Y002235D01*
X001418Y002206D01*
X001399Y002179D01*
X001378Y002154D01*
X001354Y002132D01*
X001327Y002113D01*
X001299Y002097D01*
X001268Y002085D01*
X001237Y002076D01*
X001205Y002071D01*
X001172Y002070D01*
X001139Y002073D01*
X001107Y002080D01*
X001076Y002090D01*
X001047Y002104D01*
X001019Y002122D01*
X000994Y002142D01*
X000971Y002166D01*
X000951Y002192D01*
X000934Y002220D01*
X000921Y002250D01*
X000912Y002281D01*
X000906Y002313D01*
X000904Y002346D01*
X001904Y002346D02*
X001906Y002379D01*
X001912Y002411D01*
X001921Y002442D01*
X001934Y002472D01*
X001951Y002500D01*
X001971Y002526D01*
X001994Y002550D01*
X002019Y002570D01*
X002047Y002588D01*
X002076Y002602D01*
X002107Y002612D01*
X002139Y002619D01*
X002172Y002622D01*
X002205Y002621D01*
X002237Y002616D01*
X002268Y002607D01*
X002299Y002595D01*
X002327Y002579D01*
X002354Y002560D01*
X002378Y002538D01*
X002399Y002513D01*
X002418Y002486D01*
X002433Y002457D01*
X002444Y002427D01*
X002452Y002395D01*
X002456Y002362D01*
X002456Y002330D01*
X002452Y002297D01*
X002444Y002265D01*
X002433Y002235D01*
X002418Y002206D01*
X002399Y002179D01*
X002378Y002154D01*
X002354Y002132D01*
X002327Y002113D01*
X002299Y002097D01*
X002268Y002085D01*
X002237Y002076D01*
X002205Y002071D01*
X002172Y002070D01*
X002139Y002073D01*
X002107Y002080D01*
X002076Y002090D01*
X002047Y002104D01*
X002019Y002122D01*
X001994Y002142D01*
X001971Y002166D01*
X001951Y002192D01*
X001934Y002220D01*
X001921Y002250D01*
X001912Y002281D01*
X001906Y002313D01*
X001904Y002346D01*
X001904Y001096D02*
X001906Y001129D01*
X001912Y001161D01*
X001921Y001192D01*
X001934Y001222D01*
X001951Y001250D01*
X001971Y001276D01*
X001994Y001300D01*
X002019Y001320D01*
X002047Y001338D01*
X002076Y001352D01*
X002107Y001362D01*
X002139Y001369D01*
X002172Y001372D01*
X002205Y001371D01*
X002237Y001366D01*
X002268Y001357D01*
X002299Y001345D01*
X002327Y001329D01*
X002354Y001310D01*
X002378Y001288D01*
X002399Y001263D01*
X002418Y001236D01*
X002433Y001207D01*
X002444Y001177D01*
X002452Y001145D01*
X002456Y001112D01*
X002456Y001080D01*
X002452Y001047D01*
X002444Y001015D01*
X002433Y000985D01*
X002418Y000956D01*
X002399Y000929D01*
X002378Y000904D01*
X002354Y000882D01*
X002327Y000863D01*
X002299Y000847D01*
X002268Y000835D01*
X002237Y000826D01*
X002205Y000821D01*
X002172Y000820D01*
X002139Y000823D01*
X002107Y000830D01*
X002076Y000840D01*
X002047Y000854D01*
X002019Y000872D01*
X001994Y000892D01*
X001971Y000916D01*
X001951Y000942D01*
X001934Y000970D01*
X001921Y001000D01*
X001912Y001031D01*
X001906Y001063D01*
X001904Y001096D01*
D11*
X002180Y001096D03*
X001180Y001096D03*
X001180Y002346D03*
X002180Y002346D03*
D12*
X008938Y006346D03*
X007938Y013596D03*
D13*
X008922Y013596D03*
X009922Y006346D03*
D14*
X011430Y008096D03*
X011430Y009596D03*
X011430Y011096D03*
X010930Y013596D03*
X011930Y013596D03*
X007430Y011096D03*
X007430Y009596D03*
X007430Y008096D03*
X005430Y008096D03*
X005430Y006596D03*
X005430Y009596D03*
X005430Y011096D03*
X001930Y013596D03*
X000930Y013596D03*
X001430Y011096D03*
X001430Y009596D03*
X001430Y008096D03*
X001430Y006596D03*
D15*
X007690Y004096D02*
X008170Y004096D01*
X008170Y003096D02*
X007690Y003096D01*
X007690Y002096D02*
X008170Y002096D01*
X008170Y001096D02*
X007690Y001096D01*
X010690Y001096D02*
X011170Y001096D01*
X011170Y002096D02*
X010690Y002096D01*
X010690Y003096D02*
X011170Y003096D01*
X011170Y004096D02*
X010690Y004096D01*
D16*
X001180Y004096D03*
D17*
X004680Y013346D03*
D18*
X002180Y004096D03*
M02*
