G75*
%MOIN*%
%OFA0B0*%
%FSLAX24Y24*%
%IPPOS*%
%LPD*%
%AMOC8*
5,1,8,0,0,1.08239X$1,22.5*
%
%ADD10C,0.0000*%
%ADD11R,0.0472X0.0472*%
%ADD12C,0.0472*%
%ADD13C,0.0740*%
%ADD14C,0.0480*%
%ADD15C,0.0760*%
%ADD16C,0.0160*%
%ADD17C,0.2540*%
%ADD18R,0.0760X0.0760*%
%ADD19C,0.0240*%
%ADD20OC8,0.0356*%
D10*
X000180Y000346D02*
X000180Y014846D01*
X012680Y014846D01*
X012680Y000346D01*
X000180Y000346D01*
X000904Y001096D02*
X000906Y001129D01*
X000912Y001161D01*
X000921Y001192D01*
X000934Y001222D01*
X000951Y001250D01*
X000971Y001276D01*
X000994Y001300D01*
X001019Y001320D01*
X001047Y001338D01*
X001076Y001352D01*
X001107Y001362D01*
X001139Y001369D01*
X001172Y001372D01*
X001205Y001371D01*
X001237Y001366D01*
X001268Y001357D01*
X001299Y001345D01*
X001327Y001329D01*
X001354Y001310D01*
X001378Y001288D01*
X001399Y001263D01*
X001418Y001236D01*
X001433Y001207D01*
X001444Y001177D01*
X001452Y001145D01*
X001456Y001112D01*
X001456Y001080D01*
X001452Y001047D01*
X001444Y001015D01*
X001433Y000985D01*
X001418Y000956D01*
X001399Y000929D01*
X001378Y000904D01*
X001354Y000882D01*
X001327Y000863D01*
X001299Y000847D01*
X001268Y000835D01*
X001237Y000826D01*
X001205Y000821D01*
X001172Y000820D01*
X001139Y000823D01*
X001107Y000830D01*
X001076Y000840D01*
X001047Y000854D01*
X001019Y000872D01*
X000994Y000892D01*
X000971Y000916D01*
X000951Y000942D01*
X000934Y000970D01*
X000921Y001000D01*
X000912Y001031D01*
X000906Y001063D01*
X000904Y001096D01*
X000904Y002346D02*
X000906Y002379D01*
X000912Y002411D01*
X000921Y002442D01*
X000934Y002472D01*
X000951Y002500D01*
X000971Y002526D01*
X000994Y002550D01*
X001019Y002570D01*
X001047Y002588D01*
X001076Y002602D01*
X001107Y002612D01*
X001139Y002619D01*
X001172Y002622D01*
X001205Y002621D01*
X001237Y002616D01*
X001268Y002607D01*
X001299Y002595D01*
X001327Y002579D01*
X001354Y002560D01*
X001378Y002538D01*
X001399Y002513D01*
X001418Y002486D01*
X001433Y002457D01*
X001444Y002427D01*
X001452Y002395D01*
X001456Y002362D01*
X001456Y002330D01*
X001452Y002297D01*
X001444Y002265D01*
X001433Y002235D01*
X001418Y002206D01*
X001399Y002179D01*
X001378Y002154D01*
X001354Y002132D01*
X001327Y002113D01*
X001299Y002097D01*
X001268Y002085D01*
X001237Y002076D01*
X001205Y002071D01*
X001172Y002070D01*
X001139Y002073D01*
X001107Y002080D01*
X001076Y002090D01*
X001047Y002104D01*
X001019Y002122D01*
X000994Y002142D01*
X000971Y002166D01*
X000951Y002192D01*
X000934Y002220D01*
X000921Y002250D01*
X000912Y002281D01*
X000906Y002313D01*
X000904Y002346D01*
X001904Y002346D02*
X001906Y002379D01*
X001912Y002411D01*
X001921Y002442D01*
X001934Y002472D01*
X001951Y002500D01*
X001971Y002526D01*
X001994Y002550D01*
X002019Y002570D01*
X002047Y002588D01*
X002076Y002602D01*
X002107Y002612D01*
X002139Y002619D01*
X002172Y002622D01*
X002205Y002621D01*
X002237Y002616D01*
X002268Y002607D01*
X002299Y002595D01*
X002327Y002579D01*
X002354Y002560D01*
X002378Y002538D01*
X002399Y002513D01*
X002418Y002486D01*
X002433Y002457D01*
X002444Y002427D01*
X002452Y002395D01*
X002456Y002362D01*
X002456Y002330D01*
X002452Y002297D01*
X002444Y002265D01*
X002433Y002235D01*
X002418Y002206D01*
X002399Y002179D01*
X002378Y002154D01*
X002354Y002132D01*
X002327Y002113D01*
X002299Y002097D01*
X002268Y002085D01*
X002237Y002076D01*
X002205Y002071D01*
X002172Y002070D01*
X002139Y002073D01*
X002107Y002080D01*
X002076Y002090D01*
X002047Y002104D01*
X002019Y002122D01*
X001994Y002142D01*
X001971Y002166D01*
X001951Y002192D01*
X001934Y002220D01*
X001921Y002250D01*
X001912Y002281D01*
X001906Y002313D01*
X001904Y002346D01*
X001904Y001096D02*
X001906Y001129D01*
X001912Y001161D01*
X001921Y001192D01*
X001934Y001222D01*
X001951Y001250D01*
X001971Y001276D01*
X001994Y001300D01*
X002019Y001320D01*
X002047Y001338D01*
X002076Y001352D01*
X002107Y001362D01*
X002139Y001369D01*
X002172Y001372D01*
X002205Y001371D01*
X002237Y001366D01*
X002268Y001357D01*
X002299Y001345D01*
X002327Y001329D01*
X002354Y001310D01*
X002378Y001288D01*
X002399Y001263D01*
X002418Y001236D01*
X002433Y001207D01*
X002444Y001177D01*
X002452Y001145D01*
X002456Y001112D01*
X002456Y001080D01*
X002452Y001047D01*
X002444Y001015D01*
X002433Y000985D01*
X002418Y000956D01*
X002399Y000929D01*
X002378Y000904D01*
X002354Y000882D01*
X002327Y000863D01*
X002299Y000847D01*
X002268Y000835D01*
X002237Y000826D01*
X002205Y000821D01*
X002172Y000820D01*
X002139Y000823D01*
X002107Y000830D01*
X002076Y000840D01*
X002047Y000854D01*
X002019Y000872D01*
X001994Y000892D01*
X001971Y000916D01*
X001951Y000942D01*
X001934Y000970D01*
X001921Y001000D01*
X001912Y001031D01*
X001906Y001063D01*
X001904Y001096D01*
D11*
X008938Y006346D03*
X007938Y013596D03*
D12*
X008922Y013596D03*
X009922Y006346D03*
D13*
X011430Y008096D03*
X011430Y009596D03*
X011430Y011096D03*
X010930Y013596D03*
X011930Y013596D03*
X007430Y011096D03*
X007430Y009596D03*
X007430Y008096D03*
X005430Y008096D03*
X005430Y006596D03*
X005430Y009596D03*
X005430Y011096D03*
X001930Y013596D03*
X000930Y013596D03*
X001430Y011096D03*
X001430Y009596D03*
X001430Y008096D03*
X001430Y006596D03*
D14*
X007690Y004096D02*
X008170Y004096D01*
X008170Y003096D02*
X007690Y003096D01*
X007690Y002096D02*
X008170Y002096D01*
X008170Y001096D02*
X007690Y001096D01*
X010690Y001096D02*
X011170Y001096D01*
X011170Y002096D02*
X010690Y002096D01*
X010690Y003096D02*
X011170Y003096D01*
X011170Y004096D02*
X010690Y004096D01*
D15*
X001180Y004096D03*
D16*
X001635Y003675D02*
X007453Y003675D01*
X007418Y003689D02*
X007595Y003616D01*
X008265Y003616D01*
X008442Y003689D01*
X008577Y003824D01*
X008650Y004001D01*
X008650Y004192D01*
X008577Y004368D01*
X008442Y004503D01*
X008265Y004576D01*
X007595Y004576D01*
X007418Y004503D01*
X007283Y004368D01*
X007210Y004192D01*
X007210Y004001D01*
X007283Y003824D01*
X007418Y003689D01*
X007450Y003516D02*
X001400Y003516D01*
X001303Y003476D02*
X001531Y003571D01*
X001706Y003745D01*
X001800Y003973D01*
X001800Y004220D01*
X001706Y004448D01*
X001531Y004622D01*
X001303Y004716D01*
X001057Y004716D01*
X000829Y004622D01*
X000654Y004448D01*
X000560Y004220D01*
X000560Y003973D01*
X000654Y003745D01*
X000829Y003571D01*
X001057Y003476D01*
X001303Y003476D01*
X000960Y003516D02*
X000420Y003516D01*
X000420Y003358D02*
X007279Y003358D01*
X007283Y003368D02*
X007210Y003192D01*
X007210Y003001D01*
X007283Y002824D01*
X007418Y002689D01*
X007595Y002616D01*
X008265Y002616D01*
X008442Y002689D01*
X008577Y002824D01*
X008650Y003001D01*
X008650Y003192D01*
X008577Y003368D01*
X008442Y003503D01*
X008265Y003576D01*
X007595Y003576D01*
X007418Y003503D01*
X007283Y003368D01*
X007213Y003199D02*
X000420Y003199D01*
X000420Y003041D02*
X007210Y003041D01*
X007259Y002882D02*
X003735Y002882D01*
X003848Y002770D02*
X003603Y003014D01*
X003257Y003014D01*
X003012Y002770D01*
X003012Y002423D01*
X003257Y002178D01*
X003339Y002178D01*
X003726Y001791D01*
X003858Y001736D01*
X007371Y001736D01*
X007418Y001689D01*
X007595Y001616D01*
X008265Y001616D01*
X008442Y001689D01*
X008577Y001824D01*
X008650Y002001D01*
X008650Y002192D01*
X008577Y002368D01*
X008442Y002503D01*
X008265Y002576D01*
X007595Y002576D01*
X007418Y002503D01*
X007371Y002456D01*
X004079Y002456D01*
X003848Y002687D01*
X003848Y002770D01*
X003848Y002724D02*
X007384Y002724D01*
X007568Y002565D02*
X003970Y002565D01*
X003427Y002090D02*
X002632Y002090D01*
X002617Y002054D02*
X002696Y002244D01*
X002696Y002449D01*
X002617Y002638D01*
X002472Y002783D01*
X002283Y002862D01*
X002077Y002862D01*
X001888Y002783D01*
X001743Y002638D01*
X001680Y002487D01*
X001617Y002638D01*
X001472Y002783D01*
X001283Y002862D01*
X001077Y002862D01*
X000888Y002783D01*
X000743Y002638D01*
X000664Y002449D01*
X000664Y002244D01*
X000743Y002054D01*
X000888Y001909D01*
X001077Y001831D01*
X001283Y001831D01*
X001472Y001909D01*
X001617Y002054D01*
X001680Y002206D01*
X001743Y002054D01*
X001888Y001909D01*
X002077Y001831D01*
X002283Y001831D01*
X002472Y001909D01*
X002617Y002054D01*
X002494Y001931D02*
X003586Y001931D01*
X003770Y001773D02*
X000420Y001773D01*
X000420Y001931D02*
X000866Y001931D01*
X000728Y002090D02*
X000420Y002090D01*
X000420Y002248D02*
X000664Y002248D01*
X000664Y002407D02*
X000420Y002407D01*
X000420Y002565D02*
X000713Y002565D01*
X000828Y002724D02*
X000420Y002724D01*
X000420Y002882D02*
X003125Y002882D01*
X003012Y002724D02*
X002532Y002724D01*
X002647Y002565D02*
X003012Y002565D01*
X003028Y002407D02*
X002696Y002407D01*
X002696Y002248D02*
X003187Y002248D01*
X002472Y001533D02*
X002617Y001388D01*
X002696Y001199D01*
X002696Y000994D01*
X002617Y000804D01*
X002472Y000659D01*
X002296Y000586D01*
X012440Y000586D01*
X012440Y013244D01*
X012276Y013079D01*
X012051Y012986D01*
X011809Y012986D01*
X011584Y013079D01*
X011413Y013251D01*
X011320Y013475D01*
X011320Y013718D01*
X011413Y013942D01*
X011584Y014113D01*
X011809Y014206D01*
X012051Y014206D01*
X012276Y014113D01*
X012440Y013949D01*
X012440Y014606D01*
X000420Y014606D01*
X000420Y000586D01*
X001064Y000586D01*
X000888Y000659D01*
X000743Y000804D01*
X000664Y000994D01*
X000664Y001199D01*
X000743Y001388D01*
X000888Y001533D01*
X001077Y001612D01*
X001283Y001612D01*
X001472Y001533D01*
X001617Y001388D01*
X001680Y001237D01*
X001743Y001388D01*
X001888Y001533D01*
X002077Y001612D01*
X002283Y001612D01*
X002472Y001533D01*
X002550Y001456D02*
X010371Y001456D01*
X010418Y001503D02*
X010283Y001368D01*
X010210Y001192D01*
X010210Y001001D01*
X010283Y000824D01*
X010418Y000689D01*
X010595Y000616D01*
X011265Y000616D01*
X011442Y000689D01*
X011489Y000736D01*
X011502Y000736D01*
X011634Y000791D01*
X012134Y001291D01*
X012235Y001392D01*
X012290Y001525D01*
X012290Y005918D01*
X012235Y006050D01*
X012134Y006152D01*
X011790Y006495D01*
X011790Y007594D01*
X011947Y007751D01*
X012040Y007975D01*
X012040Y008218D01*
X011947Y008442D01*
X011776Y008613D01*
X011551Y008706D01*
X011309Y008706D01*
X011084Y008613D01*
X010913Y008442D01*
X010820Y008218D01*
X010820Y007975D01*
X010913Y007751D01*
X011070Y007594D01*
X011070Y006706D01*
X010236Y006706D01*
X010192Y006750D01*
X010017Y006823D01*
X009827Y006823D01*
X009652Y006750D01*
X009518Y006616D01*
X009446Y006441D01*
X009446Y006252D01*
X009518Y006077D01*
X009652Y005943D01*
X009827Y005870D01*
X010017Y005870D01*
X010192Y005943D01*
X010236Y005986D01*
X011281Y005986D01*
X011570Y005697D01*
X011570Y004375D01*
X011442Y004503D01*
X011265Y004576D01*
X010595Y004576D01*
X010418Y004503D01*
X010283Y004368D01*
X010210Y004192D01*
X010210Y004001D01*
X010283Y003824D01*
X010418Y003689D01*
X010595Y003616D01*
X011265Y003616D01*
X011442Y003689D01*
X011570Y003818D01*
X011570Y003375D01*
X011442Y003503D01*
X011265Y003576D01*
X010595Y003576D01*
X010418Y003503D01*
X010283Y003368D01*
X010210Y003192D01*
X010210Y003001D01*
X010283Y002824D01*
X010418Y002689D01*
X010595Y002616D01*
X011265Y002616D01*
X011442Y002689D01*
X011570Y002818D01*
X011570Y002375D01*
X011442Y002503D01*
X011265Y002576D01*
X010595Y002576D01*
X010418Y002503D01*
X010283Y002368D01*
X010210Y002192D01*
X010210Y002001D01*
X010283Y001824D01*
X010418Y001689D01*
X010595Y001616D01*
X011265Y001616D01*
X011442Y001689D01*
X011570Y001818D01*
X011570Y001745D01*
X011361Y001537D01*
X011265Y001576D01*
X010595Y001576D01*
X010418Y001503D01*
X010335Y001773D02*
X008525Y001773D01*
X008621Y001931D02*
X010239Y001931D01*
X010210Y002090D02*
X008650Y002090D01*
X008627Y002248D02*
X010233Y002248D01*
X010322Y002407D02*
X008538Y002407D01*
X008292Y002565D02*
X010568Y002565D01*
X010384Y002724D02*
X008476Y002724D01*
X008601Y002882D02*
X010259Y002882D01*
X010210Y003041D02*
X008650Y003041D01*
X008647Y003199D02*
X010213Y003199D01*
X010279Y003358D02*
X008581Y003358D01*
X008410Y003516D02*
X010450Y003516D01*
X010453Y003675D02*
X008407Y003675D01*
X008581Y003833D02*
X010279Y003833D01*
X010214Y003992D02*
X008646Y003992D01*
X008650Y004150D02*
X010210Y004150D01*
X010258Y004309D02*
X008602Y004309D01*
X008478Y004467D02*
X010382Y004467D01*
X011407Y003675D02*
X011570Y003675D01*
X011570Y003516D02*
X011410Y003516D01*
X011476Y002724D02*
X011570Y002724D01*
X011570Y002565D02*
X011292Y002565D01*
X011538Y002407D02*
X011570Y002407D01*
X011570Y001773D02*
X011525Y001773D01*
X011439Y001614D02*
X000420Y001614D01*
X000420Y001456D02*
X000810Y001456D01*
X000705Y001297D02*
X000420Y001297D01*
X000420Y001139D02*
X000664Y001139D01*
X000670Y000980D02*
X000420Y000980D01*
X000420Y000822D02*
X000736Y000822D01*
X000884Y000663D02*
X000420Y000663D01*
X001494Y001931D02*
X001866Y001931D01*
X001728Y002090D02*
X001632Y002090D01*
X001647Y002565D02*
X001713Y002565D01*
X001828Y002724D02*
X001532Y002724D01*
X000725Y003675D02*
X000420Y003675D01*
X000420Y003833D02*
X000618Y003833D01*
X000560Y003992D02*
X000420Y003992D01*
X000420Y004150D02*
X000560Y004150D01*
X000597Y004309D02*
X000420Y004309D01*
X000420Y004467D02*
X000674Y004467D01*
X000838Y004626D02*
X000420Y004626D01*
X000420Y004784D02*
X011570Y004784D01*
X011570Y004626D02*
X001522Y004626D01*
X001686Y004467D02*
X007382Y004467D01*
X007258Y004309D02*
X001763Y004309D01*
X001800Y004150D02*
X007210Y004150D01*
X007214Y003992D02*
X001800Y003992D01*
X001742Y003833D02*
X007279Y003833D01*
X005776Y006079D02*
X005551Y005986D01*
X005309Y005986D01*
X005084Y006079D01*
X004913Y006251D01*
X004820Y006475D01*
X004820Y006718D01*
X004913Y006942D01*
X005084Y007113D01*
X005309Y007206D01*
X005551Y007206D01*
X005776Y007113D01*
X005947Y006942D01*
X006040Y006718D01*
X006040Y006475D01*
X005947Y006251D01*
X005776Y006079D01*
X005711Y006052D02*
X009543Y006052D01*
X009463Y006211D02*
X005907Y006211D01*
X005996Y006369D02*
X009446Y006369D01*
X009482Y006528D02*
X006040Y006528D01*
X006040Y006686D02*
X009589Y006686D01*
X009770Y005894D02*
X000420Y005894D01*
X000420Y006052D02*
X001149Y006052D01*
X001084Y006079D02*
X001309Y005986D01*
X001551Y005986D01*
X001776Y006079D01*
X001933Y006236D01*
X002752Y006236D01*
X002884Y006291D01*
X004329Y007736D01*
X004927Y007736D01*
X005084Y007579D01*
X005309Y007486D01*
X005551Y007486D01*
X005776Y007579D01*
X005947Y007751D01*
X006040Y007975D01*
X006040Y008218D01*
X005947Y008442D01*
X005776Y008613D01*
X005551Y008706D01*
X005309Y008706D01*
X005084Y008613D01*
X004927Y008456D01*
X004108Y008456D01*
X003976Y008402D01*
X003875Y008300D01*
X002531Y006956D01*
X001933Y006956D01*
X001776Y007113D01*
X001551Y007206D01*
X001309Y007206D01*
X001084Y007113D01*
X000913Y006942D01*
X000820Y006718D01*
X000820Y006475D01*
X000913Y006251D01*
X001084Y006079D01*
X000953Y006211D02*
X000420Y006211D01*
X000420Y006369D02*
X000864Y006369D01*
X000820Y006528D02*
X000420Y006528D01*
X000420Y006686D02*
X000820Y006686D01*
X000873Y006845D02*
X000420Y006845D01*
X000420Y007003D02*
X000974Y007003D01*
X001201Y007162D02*
X000420Y007162D01*
X000420Y007320D02*
X002895Y007320D01*
X002736Y007162D02*
X001659Y007162D01*
X001886Y007003D02*
X002578Y007003D01*
X003053Y007479D02*
X000420Y007479D01*
X000420Y007637D02*
X001026Y007637D01*
X001084Y007579D02*
X000913Y007751D01*
X000820Y007975D01*
X000820Y008218D01*
X000913Y008442D01*
X001084Y008613D01*
X001309Y008706D01*
X001551Y008706D01*
X001776Y008613D01*
X001947Y008442D01*
X002040Y008218D01*
X002040Y007975D01*
X001947Y007751D01*
X001776Y007579D01*
X001551Y007486D01*
X001309Y007486D01*
X001084Y007579D01*
X000894Y007796D02*
X000420Y007796D01*
X000420Y007954D02*
X000829Y007954D01*
X000820Y008113D02*
X000420Y008113D01*
X000420Y008271D02*
X000842Y008271D01*
X000908Y008430D02*
X000420Y008430D01*
X000420Y008588D02*
X001059Y008588D01*
X001309Y008986D02*
X001551Y008986D01*
X001776Y009079D01*
X001947Y009251D01*
X002040Y009475D01*
X002040Y009718D01*
X001947Y009942D01*
X001776Y010113D01*
X001551Y010206D01*
X001309Y010206D01*
X001084Y010113D01*
X000913Y009942D01*
X000820Y009718D01*
X000820Y009475D01*
X000913Y009251D01*
X001084Y009079D01*
X001309Y008986D01*
X001122Y009064D02*
X000420Y009064D01*
X000420Y009222D02*
X000941Y009222D01*
X000859Y009381D02*
X000420Y009381D01*
X000420Y009539D02*
X000820Y009539D01*
X000820Y009698D02*
X000420Y009698D01*
X000420Y009856D02*
X000877Y009856D01*
X000986Y010015D02*
X000420Y010015D01*
X000420Y010173D02*
X001229Y010173D01*
X001309Y010486D02*
X001551Y010486D01*
X001776Y010579D01*
X001947Y010751D01*
X002040Y010975D01*
X002040Y011218D01*
X001947Y011442D01*
X001776Y011613D01*
X001551Y011706D01*
X001309Y011706D01*
X001084Y011613D01*
X000913Y011442D01*
X000820Y011218D01*
X000820Y010975D01*
X000913Y010751D01*
X001084Y010579D01*
X001309Y010486D01*
X001299Y010490D02*
X000420Y010490D01*
X000420Y010332D02*
X012440Y010332D01*
X012440Y010490D02*
X011561Y010490D01*
X011551Y010486D02*
X011776Y010579D01*
X011947Y010751D01*
X012040Y010975D01*
X012040Y011218D01*
X011947Y011442D01*
X011776Y011613D01*
X011551Y011706D01*
X011309Y011706D01*
X011084Y011613D01*
X010913Y011442D01*
X010820Y011218D01*
X010820Y010975D01*
X010913Y010751D01*
X011084Y010579D01*
X011309Y010486D01*
X011551Y010486D01*
X011299Y010490D02*
X007561Y010490D01*
X007551Y010486D02*
X007776Y010579D01*
X007947Y010751D01*
X008040Y010975D01*
X008040Y011218D01*
X007947Y011442D01*
X007776Y011613D01*
X007551Y011706D01*
X007309Y011706D01*
X007084Y011613D01*
X006927Y011456D01*
X005933Y011456D01*
X005776Y011613D01*
X005551Y011706D01*
X005309Y011706D01*
X005084Y011613D01*
X004913Y011442D01*
X004820Y011218D01*
X004820Y010975D01*
X004913Y010751D01*
X005084Y010579D01*
X005309Y010486D01*
X005551Y010486D01*
X005776Y010579D01*
X005933Y010736D01*
X006927Y010736D01*
X007084Y010579D01*
X007309Y010486D01*
X007551Y010486D01*
X007299Y010490D02*
X005561Y010490D01*
X005299Y010490D02*
X001561Y010490D01*
X001631Y010173D02*
X005229Y010173D01*
X005309Y010206D02*
X005084Y010113D01*
X004913Y009942D01*
X004820Y009718D01*
X004820Y009475D01*
X004913Y009251D01*
X005084Y009079D01*
X005309Y008986D01*
X005551Y008986D01*
X005776Y009079D01*
X005947Y009251D01*
X006040Y009475D01*
X006040Y009718D01*
X005947Y009942D01*
X005776Y010113D01*
X005551Y010206D01*
X005309Y010206D01*
X005631Y010173D02*
X007229Y010173D01*
X007309Y010206D02*
X007084Y010113D01*
X006913Y009942D01*
X006820Y009718D01*
X006820Y009475D01*
X006913Y009251D01*
X007084Y009079D01*
X007309Y008986D01*
X007551Y008986D01*
X007776Y009079D01*
X007947Y009251D01*
X008040Y009475D01*
X008040Y009718D01*
X007947Y009942D01*
X007776Y010113D01*
X007551Y010206D01*
X007309Y010206D01*
X006986Y010015D02*
X005874Y010015D01*
X005983Y009856D02*
X006877Y009856D01*
X006820Y009698D02*
X006040Y009698D01*
X006040Y009539D02*
X006820Y009539D01*
X006859Y009381D02*
X006001Y009381D01*
X005919Y009222D02*
X006941Y009222D01*
X007122Y009064D02*
X005738Y009064D01*
X005801Y008588D02*
X007059Y008588D01*
X007084Y008613D02*
X006913Y008442D01*
X006820Y008218D01*
X006820Y007975D01*
X006913Y007751D01*
X007084Y007579D01*
X007309Y007486D01*
X007551Y007486D01*
X007776Y007579D01*
X007947Y007751D01*
X008040Y007975D01*
X008040Y008218D01*
X007947Y008442D01*
X007776Y008613D01*
X007551Y008706D01*
X007309Y008706D01*
X007084Y008613D01*
X006908Y008430D02*
X005952Y008430D01*
X006018Y008271D02*
X006842Y008271D01*
X006820Y008113D02*
X006040Y008113D01*
X006031Y007954D02*
X006829Y007954D01*
X006894Y007796D02*
X005966Y007796D01*
X005834Y007637D02*
X007026Y007637D01*
X007834Y007637D02*
X011026Y007637D01*
X011070Y007479D02*
X004072Y007479D01*
X004230Y007637D02*
X005026Y007637D01*
X005201Y007162D02*
X003755Y007162D01*
X003913Y007320D02*
X011070Y007320D01*
X011070Y007162D02*
X005659Y007162D01*
X005886Y007003D02*
X011070Y007003D01*
X011070Y006845D02*
X005987Y006845D01*
X005149Y006052D02*
X001711Y006052D01*
X001907Y006211D02*
X004953Y006211D01*
X004864Y006369D02*
X002962Y006369D01*
X003121Y006528D02*
X004820Y006528D01*
X004820Y006686D02*
X003279Y006686D01*
X003438Y006845D02*
X004873Y006845D01*
X004974Y007003D02*
X003596Y007003D01*
X003212Y007637D02*
X001834Y007637D01*
X001966Y007796D02*
X003370Y007796D01*
X003529Y007954D02*
X002031Y007954D01*
X002040Y008113D02*
X003687Y008113D01*
X003846Y008271D02*
X002018Y008271D01*
X001952Y008430D02*
X004044Y008430D01*
X004859Y009381D02*
X002001Y009381D01*
X002040Y009539D02*
X004820Y009539D01*
X004820Y009698D02*
X002040Y009698D01*
X001983Y009856D02*
X004877Y009856D01*
X004986Y010015D02*
X001874Y010015D01*
X001845Y010649D02*
X005015Y010649D01*
X004889Y010807D02*
X001971Y010807D01*
X002036Y010966D02*
X004824Y010966D01*
X004820Y011124D02*
X002040Y011124D01*
X002013Y011283D02*
X004847Y011283D01*
X004913Y011441D02*
X001947Y011441D01*
X001789Y011600D02*
X005071Y011600D01*
X005789Y011600D02*
X007071Y011600D01*
X007789Y011600D02*
X011071Y011600D01*
X010913Y011441D02*
X007947Y011441D01*
X008013Y011283D02*
X010847Y011283D01*
X010820Y011124D02*
X008040Y011124D01*
X008036Y010966D02*
X010824Y010966D01*
X010889Y010807D02*
X007971Y010807D01*
X007845Y010649D02*
X011015Y010649D01*
X011845Y010649D02*
X012440Y010649D01*
X012440Y010807D02*
X011971Y010807D01*
X012036Y010966D02*
X012440Y010966D01*
X012440Y011124D02*
X012040Y011124D01*
X012013Y011283D02*
X012440Y011283D01*
X012440Y011441D02*
X011947Y011441D01*
X011789Y011600D02*
X012440Y011600D01*
X012440Y011758D02*
X000420Y011758D01*
X000420Y011600D02*
X001071Y011600D01*
X000913Y011441D02*
X000420Y011441D01*
X000420Y011283D02*
X000847Y011283D01*
X000820Y011124D02*
X000420Y011124D01*
X000420Y010966D02*
X000824Y010966D01*
X000889Y010807D02*
X000420Y010807D01*
X000420Y010649D02*
X001015Y010649D01*
X000420Y011917D02*
X012440Y011917D01*
X012440Y012075D02*
X000420Y012075D01*
X000420Y012234D02*
X012440Y012234D01*
X012440Y012392D02*
X000420Y012392D01*
X000420Y012551D02*
X012440Y012551D01*
X012440Y012709D02*
X000420Y012709D01*
X000420Y012868D02*
X012440Y012868D01*
X012440Y013026D02*
X012148Y013026D01*
X012381Y013185D02*
X012440Y013185D01*
X011712Y013026D02*
X002148Y013026D01*
X002051Y012986D02*
X002276Y013079D01*
X002447Y013251D01*
X002540Y013475D01*
X002540Y013718D01*
X002447Y013942D01*
X002276Y014113D01*
X002051Y014206D01*
X001809Y014206D01*
X001584Y014113D01*
X001413Y013942D01*
X001320Y013718D01*
X001320Y013475D01*
X001413Y013251D01*
X001584Y013079D01*
X001809Y012986D01*
X002051Y012986D01*
X001712Y013026D02*
X000420Y013026D01*
X000420Y013185D02*
X001479Y013185D01*
X001375Y013343D02*
X000420Y013343D01*
X000420Y013502D02*
X001320Y013502D01*
X001320Y013660D02*
X000420Y013660D01*
X000420Y013819D02*
X001362Y013819D01*
X001448Y013977D02*
X000420Y013977D01*
X000420Y014136D02*
X001639Y014136D01*
X002221Y014136D02*
X011639Y014136D01*
X011448Y013977D02*
X009215Y013977D01*
X009192Y014000D02*
X009017Y014073D01*
X008827Y014073D01*
X008652Y014000D01*
X008518Y013866D01*
X008446Y013691D01*
X008446Y013502D01*
X002540Y013502D01*
X002540Y013660D02*
X008446Y013660D01*
X008446Y013502D02*
X008518Y013327D01*
X008652Y013193D01*
X008827Y013120D01*
X009017Y013120D01*
X009192Y013193D01*
X009326Y013327D01*
X009398Y013502D01*
X011320Y013502D01*
X011320Y013660D02*
X009398Y013660D01*
X009398Y013691D02*
X009398Y013502D01*
X009333Y013343D02*
X011375Y013343D01*
X011479Y013185D02*
X009173Y013185D01*
X008671Y013185D02*
X002381Y013185D01*
X002485Y013343D02*
X008511Y013343D01*
X008499Y013819D02*
X002498Y013819D01*
X002412Y013977D02*
X008630Y013977D01*
X009192Y014000D02*
X009326Y013866D01*
X009398Y013691D01*
X009345Y013819D02*
X011362Y013819D01*
X012221Y014136D02*
X012440Y014136D01*
X012440Y014294D02*
X000420Y014294D01*
X000420Y014453D02*
X012440Y014453D01*
X012412Y013977D02*
X012440Y013977D01*
X012440Y010173D02*
X007631Y010173D01*
X007874Y010015D02*
X012440Y010015D01*
X012440Y009856D02*
X007983Y009856D01*
X008040Y009698D02*
X012440Y009698D01*
X012440Y009539D02*
X008040Y009539D01*
X008001Y009381D02*
X012440Y009381D01*
X012440Y009222D02*
X007919Y009222D01*
X007738Y009064D02*
X012440Y009064D01*
X012440Y008905D02*
X000420Y008905D01*
X000420Y008747D02*
X012440Y008747D01*
X012440Y008588D02*
X011801Y008588D01*
X011952Y008430D02*
X012440Y008430D01*
X012440Y008271D02*
X012018Y008271D01*
X012040Y008113D02*
X012440Y008113D01*
X012440Y007954D02*
X012031Y007954D01*
X011966Y007796D02*
X012440Y007796D01*
X012440Y007637D02*
X011834Y007637D01*
X011790Y007479D02*
X012440Y007479D01*
X012440Y007320D02*
X011790Y007320D01*
X011790Y007162D02*
X012440Y007162D01*
X012440Y007003D02*
X011790Y007003D01*
X011790Y006845D02*
X012440Y006845D01*
X012440Y006686D02*
X011790Y006686D01*
X011790Y006528D02*
X012440Y006528D01*
X012440Y006369D02*
X011916Y006369D01*
X012075Y006211D02*
X012440Y006211D01*
X012440Y006052D02*
X012233Y006052D01*
X012134Y006152D02*
X012134Y006152D01*
X012290Y005894D02*
X012440Y005894D01*
X012440Y005735D02*
X012290Y005735D01*
X012290Y005577D02*
X012440Y005577D01*
X012440Y005418D02*
X012290Y005418D01*
X012290Y005260D02*
X012440Y005260D01*
X012440Y005101D02*
X012290Y005101D01*
X012290Y004943D02*
X012440Y004943D01*
X012440Y004784D02*
X012290Y004784D01*
X012290Y004626D02*
X012440Y004626D01*
X012440Y004467D02*
X012290Y004467D01*
X012290Y004309D02*
X012440Y004309D01*
X012440Y004150D02*
X012290Y004150D01*
X012290Y003992D02*
X012440Y003992D01*
X012440Y003833D02*
X012290Y003833D01*
X012290Y003675D02*
X012440Y003675D01*
X012440Y003516D02*
X012290Y003516D01*
X012290Y003358D02*
X012440Y003358D01*
X012440Y003199D02*
X012290Y003199D01*
X012290Y003041D02*
X012440Y003041D01*
X012440Y002882D02*
X012290Y002882D01*
X012290Y002724D02*
X012440Y002724D01*
X012440Y002565D02*
X012290Y002565D01*
X012290Y002407D02*
X012440Y002407D01*
X012440Y002248D02*
X012290Y002248D01*
X012290Y002090D02*
X012440Y002090D01*
X012440Y001931D02*
X012290Y001931D01*
X012290Y001773D02*
X012440Y001773D01*
X012440Y001614D02*
X012290Y001614D01*
X012261Y001456D02*
X012440Y001456D01*
X012440Y001297D02*
X012140Y001297D01*
X011982Y001139D02*
X012440Y001139D01*
X012440Y000980D02*
X011823Y000980D01*
X011665Y000822D02*
X012440Y000822D01*
X012440Y000663D02*
X011379Y000663D01*
X010481Y000663D02*
X002476Y000663D01*
X002624Y000822D02*
X010286Y000822D01*
X010218Y000980D02*
X002690Y000980D01*
X002696Y001139D02*
X010210Y001139D01*
X010254Y001297D02*
X002655Y001297D01*
X001810Y001456D02*
X001550Y001456D01*
X001655Y001297D02*
X001705Y001297D01*
X000420Y004943D02*
X011570Y004943D01*
X011570Y005101D02*
X000420Y005101D01*
X000420Y005260D02*
X011570Y005260D01*
X011570Y005418D02*
X000420Y005418D01*
X000420Y005577D02*
X011570Y005577D01*
X011532Y005735D02*
X000420Y005735D01*
X001801Y008588D02*
X005059Y008588D01*
X005122Y009064D02*
X001738Y009064D01*
X001919Y009222D02*
X004941Y009222D01*
X005845Y010649D02*
X007015Y010649D01*
X007801Y008588D02*
X011059Y008588D01*
X010908Y008430D02*
X007952Y008430D01*
X008018Y008271D02*
X010842Y008271D01*
X010820Y008113D02*
X008040Y008113D01*
X008031Y007954D02*
X010829Y007954D01*
X010894Y007796D02*
X007966Y007796D01*
X010074Y005894D02*
X011373Y005894D01*
X011478Y004467D02*
X011570Y004467D01*
D17*
X004680Y013346D03*
D18*
X002180Y004096D03*
D19*
X003430Y002596D02*
X003930Y002096D01*
X007930Y002096D01*
X010930Y001096D02*
X011430Y001096D01*
X011930Y001596D01*
X011930Y005846D01*
X011430Y006346D01*
X011430Y008096D01*
X011430Y006346D02*
X009922Y006346D01*
X007430Y011096D02*
X005430Y011096D01*
X005430Y008096D02*
X004180Y008096D01*
X002680Y006596D01*
X001430Y006596D01*
D20*
X003430Y002596D03*
M02*
